<?xml version="1.0" encoding="UTF-8" standalone="no"?>
<!-- Created with Inkscape (http://www.inkscape.org/) -->

<svg
   xmlns:dc="http://purl.org/dc/elements/1.1/"
   xmlns:cc="http://creativecommons.org/ns#"
   xmlns:rdf="http://www.w3.org/1999/02/22-rdf-syntax-ns#"
   xmlns:svg="http://www.w3.org/2000/svg"
   xmlns="http://www.w3.org/2000/svg"
   xmlns:sodipodi="http://sodipodi.sourceforge.net/DTD/sodipodi-0.dtd"
   xmlns:inkscape="http://www.inkscape.org/namespaces/inkscape"
   width="64pt"
   height="64pt"
   viewBox="0 0 22.577778 22.577778"
   version="1.1"
   id="svg8"
   inkscape:version="0.92.4 (5da689c313, 2019-01-14)"
   sodipodi:docname="1 - Account.svg"
   inkscape:export-filename="E:\TR Design Studio Creative\Project Design\TR Creative Design\Icon Design\Partner Fiverr\Project - 001\Export\SVG\1 - Account.png"
   inkscape:export-xdpi="576"
   inkscape:export-ydpi="576">
  <defs
     id="defs2" />
  <sodipodi:namedview
     id="base"
     pagecolor="#ffffff"
     bordercolor="#666666"
     borderopacity="1.0"
     inkscape:pageopacity="0.0"
     inkscape:pageshadow="2"
     inkscape:zoom="6.609375"
     inkscape:cx="42.666667"
     inkscape:cy="42.666667"
     inkscape:document-units="pt"
     inkscape:current-layer="layer1"
     showgrid="false"
     units="pt"
     inkscape:snap-bbox="true"
     inkscape:bbox-nodes="true"
     inkscape:snap-nodes="false"
     showguides="false"
     inkscape:window-width="1366"
     inkscape:window-height="716"
     inkscape:window-x="-8"
     inkscape:window-y="-8"
     inkscape:window-maximized="1">
    <sodipodi:guide
       position="0.70555568,21.872231"
       orientation="79.999963,0"
       id="guide849"
       inkscape:locked="false" />
    <sodipodi:guide
       position="0.70555568,0.70557441"
       orientation="0,79.999996"
       id="guide851"
       inkscape:locked="false" />
    <sodipodi:guide
       position="21.872221,0.70557441"
       orientation="-79.999963,0"
       id="guide853"
       inkscape:locked="false" />
    <sodipodi:guide
       position="21.872221,21.872231"
       orientation="0,-79.999996"
       id="guide855"
       inkscape:locked="false" />
  </sodipodi:namedview>
  <metadata
     id="metadata5">
    <rdf:RDF>
      <cc:Work
         rdf:about="">
        <dc:format>image/svg+xml</dc:format>
        <dc:type
           rdf:resource="http://purl.org/dc/dcmitype/StillImage" />
        <dc:title></dc:title>
      </cc:Work>
    </rdf:RDF>
  </metadata>
  <g
     inkscape:label="Layer 1"
     inkscape:groupmode="layer"
     id="layer1"
     transform="translate(0,-274.42223)">
    <g
       id="g1025"
       transform="matrix(1.3713235,0,0,1.3713235,-18.15814,273.82829)"
       style="display:inline;stroke-width:0.72922254">
      <path
         id="path1945"
         d="m 21.296892,0.94762229 c -0.643428,-1.3e-7 -1.19394,0.36848301 -1.457792,0.90640461 h 0.578776 a 0.1323049,0.1323049 0 0 1 0.132808,0.1328085 v 0.2930053 a 0.1323049,0.1323049 0 0 1 -0.03876,0.093534 l -0.293006,0.2930054 a 0.1323049,0.1323049 0 0 1 -0.09405,0.039274 h -0.586011 c -0.207128,-5e-7 -0.368969,0.1618407 -0.368969,0.3689698 v 0.252181 c 1e-6,0.207128 0.161841,0.36897 0.368969,0.3689697 h 3.513998 c 0.19137,0 0.371036,-0.2124832 0.371037,-0.4196125 V 3.0260484 c 0,-0.2071287 -0.157967,-0.3637353 -0.359668,-0.3457153 a 0.1323049,0.1323049 0 0 1 -0.14211,-0.1328084 c 0,-0.148047 -0.02229,-0.2912646 -0.06098,-0.4278809 H 21.882903 A 0.1323049,0.1323049 0 0 1 21.750094,1.9868354 V 1.69383 a 0.1323049,0.1323049 0 0 1 0.03876,-0.093534 L 22.08186,1.3072907 a 0.1323049,0.1323049 0 0 1 0.0801,-0.037207 0.1323049,0.1323049 0 0 1 0.01188,0 h 0.09767 C 22.000403,1.068904 21.664058,0.9476224 21.296892,0.94762229 Z M 22.230685,1.533633 22.013644,1.748607 v 0.1054199 h 0.745174 C 22.702462,1.7393752 22.634539,1.631292 22.553146,1.533633 Z m -2.494421,0.5860108 c -0.02946,0.1028204 -0.04855,0.2100579 -0.05736,0.3203939 h 0.39119 l 0.214974,-0.214974 V 2.1196438 Z"
         style="color:#000000;font-style:normal;font-variant:normal;font-weight:normal;font-stretch:normal;font-size:medium;line-height:normal;font-family:sans-serif;font-variant-ligatures:normal;font-variant-position:normal;font-variant-caps:normal;font-variant-numeric:normal;font-variant-alternates:normal;font-feature-settings:normal;text-indent:0;text-align:start;text-decoration:none;text-decoration-line:none;text-decoration-style:solid;text-decoration-color:#000000;letter-spacing:normal;word-spacing:normal;text-transform:none;writing-mode:lr-tb;direction:ltr;text-orientation:mixed;dominant-baseline:auto;baseline-shift:baseline;text-anchor:start;white-space:normal;shape-padding:0;clip-rule:nonzero;display:inline;overflow:visible;visibility:visible;opacity:1;isolation:auto;mix-blend-mode:normal;color-interpolation:sRGB;color-interpolation-filters:linearRGB;solid-color:#000000;solid-opacity:1;vector-effect:none;fill:#00c853;fill-opacity:1;fill-rule:nonzero;stroke:none;stroke-width:0.19294013;stroke-linecap:round;stroke-linejoin:round;stroke-miterlimit:7.03157997;stroke-dasharray:none;stroke-dashoffset:0;stroke-opacity:1;paint-order:markers fill stroke;color-rendering:auto;image-rendering:auto;shape-rendering:auto;text-rendering:auto;enable-background:accumulate"
         inkscape:connector-curvature="0" />
      <path
         id="path1949"
         d="m 19.853516,3.959516 h 2.884765 v 0.3925781 c 0,0.803971 -0.610605,1.4433591 -1.441406,1.4433594 -0.830802,3e-7 -1.443359,-0.6393875 -1.443359,-1.4433594 z"
         style="color:#000000;font-style:normal;font-variant:normal;font-weight:normal;font-stretch:normal;font-size:medium;line-height:normal;font-family:sans-serif;font-variant-ligatures:normal;font-variant-position:normal;font-variant-caps:normal;font-variant-numeric:normal;font-variant-alternates:normal;font-feature-settings:normal;text-indent:0;text-align:start;text-decoration:none;text-decoration-line:none;text-decoration-style:solid;text-decoration-color:#000000;letter-spacing:normal;word-spacing:normal;text-transform:none;writing-mode:lr-tb;direction:ltr;text-orientation:mixed;dominant-baseline:auto;baseline-shift:baseline;text-anchor:start;white-space:normal;shape-padding:0;clip-rule:nonzero;display:inline;overflow:visible;visibility:visible;opacity:1;isolation:auto;mix-blend-mode:normal;color-interpolation:sRGB;color-interpolation-filters:linearRGB;solid-color:#000000;solid-opacity:1;vector-effect:none;fill:#000000;fill-opacity:1;fill-rule:nonzero;stroke:none;stroke-width:0.19294013;stroke-linecap:round;stroke-linejoin:round;stroke-miterlimit:7.03157997;stroke-dasharray:none;stroke-dashoffset:0;stroke-opacity:1;paint-order:markers fill stroke;color-rendering:auto;image-rendering:auto;shape-rendering:auto;text-rendering:auto;enable-background:accumulate"
         inkscape:connector-curvature="0" />
      <path
         id="path1951"
         d="m 20.769528,6.3515625 h 1.052735 c 0.04087,0.1687991 0.09415,0.3367178 0.224609,0.4394531 0.08361,0.06584 0.19644,0.083635 0.296875,0.125 -0.613591,0.4481697 -1.461056,0.4499746 -2.089844,-0.00195 0.09936,-0.041457 0.210324,-0.059418 0.292969,-0.125 0.129178,-0.1025081 0.182115,-0.2697951 0.222656,-0.4375 z"
         style="color:#000000;font-style:normal;font-variant:normal;font-weight:normal;font-stretch:normal;font-size:medium;line-height:normal;font-family:sans-serif;font-variant-ligatures:normal;font-variant-position:normal;font-variant-caps:normal;font-variant-numeric:normal;font-variant-alternates:normal;font-feature-settings:normal;text-indent:0;text-align:start;text-decoration:none;text-decoration-line:none;text-decoration-style:solid;text-decoration-color:#000000;letter-spacing:normal;word-spacing:normal;text-transform:none;writing-mode:lr-tb;direction:ltr;text-orientation:mixed;dominant-baseline:auto;baseline-shift:baseline;text-anchor:start;white-space:normal;shape-padding:0;clip-rule:nonzero;display:inline;overflow:visible;visibility:visible;opacity:1;isolation:auto;mix-blend-mode:normal;color-interpolation:sRGB;color-interpolation-filters:linearRGB;solid-color:#000000;solid-opacity:1;vector-effect:none;fill:#000000;fill-opacity:1;fill-rule:nonzero;stroke:none;stroke-width:0.19294013;stroke-linecap:round;stroke-linejoin:round;stroke-miterlimit:7.03157997;stroke-dasharray:none;stroke-dashoffset:0;stroke-opacity:1;paint-order:markers fill stroke;color-rendering:auto;image-rendering:auto;shape-rendering:auto;text-rendering:auto;enable-background:accumulate"
         inkscape:connector-curvature="0" />
      <path
         id="path1953"
         transform="scale(0.26458334)"
         d="m 74.949219,26.242188 -4.133325,1.08424 1.814011,9.464588 c 0.0219,0.101506 0.01166,0.207313 -0.0293,0.302734 l -1.939459,4.261463 0.411117,1.074475 4.113281,3.009765 0.220703,-1.169922 -0.945312,-0.546875 c -0.240859,-0.137955 -0.323271,-0.445682 -0.183594,-0.685547 l 1.96289,-3.410156 h -1.328125 c -0.670305,-2.67e-4 -0.670305,-1.006126 0,-1.005859 h 1.908203 l 1.40625,-2.44336 c 0.137956,-0.240859 0.445682,-0.32327 0.685547,-0.183593 l 2.164063,1.248047 0.513672,-0.900391 -0.328125,-1.056641 h -4.740235 c -0.277658,0.0011 -0.503012,-0.224295 -0.501953,-0.501953 v -3.34375 c -0.0023,-0.258206 0.192339,-0.475715 0.449219,-0.501953 0.01756,-9.27e-4 0.03517,-9.27e-4 0.05273,0 h 7.935547 c 0.251974,1.4e-5 0.464575,0.187505 0.496094,0.4375 l 2.724609,-4.722656 -1.642578,-0.410156 c -2.950522,3.114461 -8.133574,3.11426 -11.085937,0 z m 2.074219,5.699218 v 2.347656 h 4.552734 l 2.378906,-1.857421 v -0.490235 z m 11.203124,1.033203 -1.238281,2.150391 0.144531,0.873047 0.378907,0.380859 z m -9.380859,4.134766 -3.455078,5.994141 0.820313,0.478515 c 0.184875,0.105349 0.282833,0.316154 0.24414,0.525391 l -0.310547,1.644531 1.416016,-0.146484 c 0.136405,-0.01429 0.27269,0.02808 0.376953,0.117187 l 1.738281,1.482422 1.222657,0.08984 c 0.16217,0.01299 0.307884,0.104061 0.390624,0.24414 l 2.65625,4.457032 0.791016,1.324218 2.371094,-2.082031 -2.525391,-3.794922 -1.439453,-0.833984 C 82.90452,46.472245 82.821669,46.168749 82.957031,45.929684 l 1.210938,-2.103516 c 0.08288,-0.144496 0.232275,-0.238233 0.398437,-0.25 0.100853,-0.0076 0.201642,0.01555 0.289063,0.06641 l 1.414062,0.816406 c 0.110202,0.03281 0.55838,0.166949 0.771485,0.232422 -1.417241,-2.006799 -2.494218,-4.419603 -3.388672,-6.388672 l -1.458985,-1 -0.505859,0.876954 c -0.137956,0.240859 -0.445682,0.32327 -0.685547,0.183593 z m 5.935547,7.646484 -0.708984,1.240235 0.511718,0.294922 0.748047,-1.216797 z m 1.46875,0.738282 -0.849609,1.373047 2.783203,4.177734 c 0.136973,0.208384 0.09948,0.485836 -0.08789,0.65039 l -2.332031,2.052735 h 4.140625 V 47.583984 C 89.267523,47.175453 88.686088,46.651908 88.146484,46.066406 87.02305,45.741457 86.493503,45.570959 86.25,45.494141 Z m -6.457031,2.720703 -1.140625,2.693359 -0.0078,0.853516 h 3.998047 l -2.076172,-3.492188 z m -8.720703,1.335937 v 4.197266 h 0.46875 l 2.291015,-3.957031 h -0.285156 c -0.0078,1.83e-4 -0.01563,1.83e-4 -0.02344,0 -0.870298,-0.03481 -1.68529,-0.115691 -2.451172,-0.240235 z m 7.5625,3.214844 -0.0078,0.982422 h 5.197266 l -0.583985,-0.982422 z"
         style="color:#000000;font-style:normal;font-variant:normal;font-weight:normal;font-stretch:normal;font-size:medium;line-height:normal;font-family:sans-serif;font-variant-ligatures:normal;font-variant-position:normal;font-variant-caps:normal;font-variant-numeric:normal;font-variant-alternates:normal;font-feature-settings:normal;text-indent:0;text-align:start;text-decoration:none;text-decoration-line:none;text-decoration-style:solid;text-decoration-color:#000000;letter-spacing:normal;word-spacing:normal;text-transform:none;writing-mode:lr-tb;direction:ltr;text-orientation:mixed;dominant-baseline:auto;baseline-shift:baseline;text-anchor:start;white-space:normal;shape-padding:0;clip-rule:nonzero;display:inline;overflow:visible;visibility:visible;opacity:1;isolation:auto;mix-blend-mode:normal;color-interpolation:sRGB;color-interpolation-filters:linearRGB;solid-color:#000000;solid-opacity:1;vector-effect:none;fill:#000000;fill-opacity:1;fill-rule:nonzero;stroke:none;stroke-width:0.72922254;stroke-linecap:round;stroke-linejoin:round;stroke-miterlimit:7.03157997;stroke-dasharray:none;stroke-dashoffset:0;stroke-opacity:1;paint-order:markers fill stroke;color-rendering:auto;image-rendering:auto;shape-rendering:auto;text-rendering:auto;enable-background:accumulate"
         inkscape:connector-curvature="0"
         sodipodi:nodetypes="cccccccccccccccccccccccccccccccccccccccccccccccccccccccccccccccccccccccccccccccccccccccccccccccccccc" />
      <path
         id="path1959"
         transform="scale(0.26458334)"
         d="m 69.972656,28.443359 c 0,0 -0.392667,0.223122 -0.884765,0.517579 v 2.478515 a 0.50005001,0.50005001 0 0 1 -0.09766,0.294922 l -2.974609,3.972656 a 0.50005001,0.50005001 0 0 1 -0.40625,0.199219 h -1.490234 c -0.01542,0.682882 -0.06552,3.0552 0.0078,4.427734 7.3e-5,0.0049 7.3e-5,0.01071 0,0.01563 0.06702,2.885394 0.878225,4.889587 2.40625,6.238282 1.528025,1.348694 3.847121,2.071697 7.035156,2.199218 h 0.611329 l 0.761718,-2.289062 -4.666015,-3.410156 c -0.07759,-0.0582 -0.136723,-0.137381 -0.169922,-0.228516 l -0.501938,-1.32813 c -0.04663,-0.121684 -0.04367,-0.257239 0.0078,-0.376953 L 71.5078,36.783203 c -0.573055,-2.740344 -1.535156,-8.339844 -1.535156,-8.339844 z m -1.882812,1.154297 c -0.799044,0.535473 -1.649608,1.17087 -2.103516,1.767578 -0.975981,1.283033 -1.583704,2.664678 -1.773437,3.53711 h 1.154297 l 2.722656,-3.632813 z"
         style="color:#000000;font-style:normal;font-variant:normal;font-weight:normal;font-stretch:normal;font-size:medium;line-height:normal;font-family:sans-serif;font-variant-ligatures:normal;font-variant-position:normal;font-variant-caps:normal;font-variant-numeric:normal;font-variant-alternates:normal;font-feature-settings:normal;text-indent:0;text-align:start;text-decoration:none;text-decoration-line:none;text-decoration-style:solid;text-decoration-color:#000000;letter-spacing:normal;word-spacing:normal;text-transform:none;writing-mode:lr-tb;direction:ltr;text-orientation:mixed;dominant-baseline:auto;baseline-shift:baseline;text-anchor:start;white-space:normal;shape-padding:0;clip-rule:nonzero;display:inline;overflow:visible;visibility:visible;opacity:1;isolation:auto;mix-blend-mode:normal;color-interpolation:sRGB;color-interpolation-filters:linearRGB;solid-color:#000000;solid-opacity:1;vector-effect:none;fill:#000000;fill-opacity:1;fill-rule:nonzero;stroke:none;stroke-width:0.72922254;stroke-linecap:round;stroke-linejoin:round;stroke-miterlimit:7.03157997;stroke-dasharray:none;stroke-dashoffset:0;stroke-opacity:1;paint-order:markers fill stroke;color-rendering:auto;image-rendering:auto;shape-rendering:auto;text-rendering:auto;enable-background:accumulate"
         inkscape:connector-curvature="0" />
      <path
         id="path1965"
         d="m 20.492184,12.335938 0.375,0.320312 -0.273438,0.648438 -0.378906,-0.01563 -0.339844,-0.291015 0.207031,-0.621094 z"
         style="color:#000000;font-style:normal;font-variant:normal;font-weight:normal;font-stretch:normal;font-size:medium;line-height:normal;font-family:sans-serif;font-variant-ligatures:normal;font-variant-position:normal;font-variant-caps:normal;font-variant-numeric:normal;font-variant-alternates:normal;font-feature-settings:normal;text-indent:0;text-align:start;text-decoration:none;text-decoration-line:none;text-decoration-style:solid;text-decoration-color:#000000;letter-spacing:normal;word-spacing:normal;text-transform:none;writing-mode:lr-tb;direction:ltr;text-orientation:mixed;dominant-baseline:auto;baseline-shift:baseline;text-anchor:start;white-space:normal;shape-padding:0;clip-rule:nonzero;display:inline;overflow:visible;visibility:visible;opacity:1;isolation:auto;mix-blend-mode:normal;color-interpolation:sRGB;color-interpolation-filters:linearRGB;solid-color:#000000;solid-opacity:1;vector-effect:none;fill:#000000;fill-opacity:1;fill-rule:nonzero;stroke:none;stroke-width:0.19294013;stroke-linecap:round;stroke-linejoin:round;stroke-miterlimit:7.03157997;stroke-dasharray:none;stroke-dashoffset:0;stroke-opacity:1;paint-order:markers fill stroke;color-rendering:auto;image-rendering:auto;shape-rendering:auto;text-rendering:auto;enable-background:accumulate"
         inkscape:connector-curvature="0" />
      <path
         id="path1973"
         transform="scale(0.26458334)"
         d="m 90.916016,28.287109 -1.085938,1.904297 -1.46875,7.021485 2.488281,2.464843 a 0.50005001,0.50005001 0 0 1 -0.701171,0.708985 l -2.6875,-2.658203 a 0.50005001,0.50005001 0 0 1 -0.0293,-0.0293 l -0.833985,-0.81836 -1.898437,1.253907 c 0.896035,1.972346 1.921606,4.28068 3.248047,6.11914 1.407998,1.951503 3.057843,3.306641 5.109375,3.306641 1.575069,0 2.3787,-0.761764 2.9375,-2.087891 0.55878,-1.326126 0.744615,-3.211105 0.789062,-5.123047 a 0.50005001,0.50005001 0 0 1 0.0078,-0.01563 c 0.07316,-1.372519 0.01883,-3.744824 0.002,-4.427734 h -1.492188 a 0.50005001,0.50005001 0 0 1 -0.398437,-0.199219 l -2.976563,-3.972656 a 0.50005001,0.50005001 0 0 1 -0.0957,-0.294922 V 28.716789 C 91.530418,28.555637 91.22689,28.406971 90.91605,28.287101 Z m 1.912109,1.070313 v 1.912109 l 2.722656,3.632813 h 1.150391 c -0.181552,-0.84169 -0.748195,-2.15534 -1.666016,-3.396485 -0.603421,-0.815992 -1.367392,-1.545045 -2.207031,-2.148437 z"
         style="color:#000000;font-style:normal;font-variant:normal;font-weight:normal;font-stretch:normal;font-size:medium;line-height:normal;font-family:sans-serif;font-variant-ligatures:normal;font-variant-position:normal;font-variant-caps:normal;font-variant-numeric:normal;font-variant-alternates:normal;font-feature-settings:normal;text-indent:0;text-align:start;text-decoration:none;text-decoration-line:none;text-decoration-style:solid;text-decoration-color:#000000;letter-spacing:normal;word-spacing:normal;text-transform:none;writing-mode:lr-tb;direction:ltr;text-orientation:mixed;dominant-baseline:auto;baseline-shift:baseline;text-anchor:start;white-space:normal;shape-padding:0;clip-rule:nonzero;display:inline;overflow:visible;visibility:visible;opacity:1;isolation:auto;mix-blend-mode:normal;color-interpolation:sRGB;color-interpolation-filters:linearRGB;solid-color:#000000;solid-opacity:1;vector-effect:none;fill:#000000;fill-opacity:1;fill-rule:nonzero;stroke:none;stroke-width:0.72922254;stroke-linecap:round;stroke-linejoin:round;stroke-miterlimit:7.03157997;stroke-dasharray:none;stroke-dashoffset:0;stroke-opacity:1;paint-order:markers fill stroke;color-rendering:auto;image-rendering:auto;shape-rendering:auto;text-rendering:auto;enable-background:accumulate"
         inkscape:connector-curvature="0" />
      <path
         id="path1977"
         d="m 22.312502,8.8398438 0.40625,0.2792968 0.06641,0.40625 L 22.24024,9.8847656 21.8711,9.6328125 21.757818,9.2714844 Z"
         style="color:#000000;font-style:normal;font-variant:normal;font-weight:normal;font-stretch:normal;font-size:medium;line-height:normal;font-family:sans-serif;font-variant-ligatures:normal;font-variant-position:normal;font-variant-caps:normal;font-variant-numeric:normal;font-variant-alternates:normal;font-feature-settings:normal;text-indent:0;text-align:start;text-decoration:none;text-decoration-line:none;text-decoration-style:solid;text-decoration-color:#000000;letter-spacing:normal;word-spacing:normal;text-transform:none;writing-mode:lr-tb;direction:ltr;text-orientation:mixed;dominant-baseline:auto;baseline-shift:baseline;text-anchor:start;white-space:normal;shape-padding:0;clip-rule:nonzero;display:inline;overflow:visible;visibility:visible;opacity:1;isolation:auto;mix-blend-mode:normal;color-interpolation:sRGB;color-interpolation-filters:linearRGB;solid-color:#000000;solid-opacity:1;vector-effect:none;fill:#000000;fill-opacity:1;fill-rule:nonzero;stroke:none;stroke-width:0.19294013;stroke-linecap:round;stroke-linejoin:round;stroke-miterlimit:7.03157997;stroke-dasharray:none;stroke-dashoffset:0;stroke-opacity:1;paint-order:markers fill stroke;color-rendering:auto;image-rendering:auto;shape-rendering:auto;text-rendering:auto;enable-background:accumulate"
         inkscape:connector-curvature="0" />
      <path
         sodipodi:nodetypes="cc"
         style="opacity:1;vector-effect:none;fill:none;fill-opacity:1;stroke:#000000;stroke-width:0.19294013;stroke-linecap:round;stroke-linejoin:round;stroke-miterlimit:7.03157997;stroke-dasharray:none;stroke-dashoffset:0;stroke-opacity:1;paint-order:markers fill stroke"
         d="M 23.973936,10.800125 23.884889,9.6658353"
         id="path1983"
         inkscape:connector-curvature="0" />
      <path
         id="path1987"
         d="m 19.777339,13.28125 0.320312,0.269531 a 0.1323049,0.1323049 0 0 0 0.08594,0.03125 l 0.361328,-0.0078 -0.02344,2.535156 -0.15625,0.273437 -1.785156,-1.033203 z"
         style="color:#000000;font-style:normal;font-variant:normal;font-weight:normal;font-stretch:normal;font-size:medium;line-height:normal;font-family:sans-serif;font-variant-ligatures:normal;font-variant-position:normal;font-variant-caps:normal;font-variant-numeric:normal;font-variant-alternates:normal;font-feature-settings:normal;text-indent:0;text-align:start;text-decoration:none;text-decoration-line:none;text-decoration-style:solid;text-decoration-color:#000000;letter-spacing:normal;word-spacing:normal;text-transform:none;writing-mode:lr-tb;direction:ltr;text-orientation:mixed;dominant-baseline:auto;baseline-shift:baseline;text-anchor:start;white-space:normal;shape-padding:0;clip-rule:nonzero;display:inline;overflow:visible;visibility:visible;opacity:1;isolation:auto;mix-blend-mode:normal;color-interpolation:sRGB;color-interpolation-filters:linearRGB;solid-color:#000000;solid-opacity:1;vector-effect:none;fill:#000000;fill-opacity:1;fill-rule:nonzero;stroke:none;stroke-width:0.19294013;stroke-linecap:round;stroke-linejoin:round;stroke-miterlimit:7.03157997;stroke-dasharray:none;stroke-dashoffset:0;stroke-opacity:1;paint-order:markers fill stroke;color-rendering:auto;image-rendering:auto;shape-rendering:auto;text-rendering:auto;enable-background:accumulate"
         inkscape:connector-curvature="0" />
      <path
         id="path1991"
         d="m 23.771488,6.5878906 0.373047,0.2167969 -1.242187,2.1582031 -0.34375,-0.2695312 z"
         style="color:#000000;font-style:normal;font-variant:normal;font-weight:normal;font-stretch:normal;font-size:medium;line-height:normal;font-family:sans-serif;font-variant-ligatures:normal;font-variant-position:normal;font-variant-caps:normal;font-variant-numeric:normal;font-variant-alternates:normal;font-feature-settings:normal;text-indent:0;text-align:start;text-decoration:none;text-decoration-line:none;text-decoration-style:solid;text-decoration-color:#000000;letter-spacing:normal;word-spacing:normal;text-transform:none;writing-mode:lr-tb;direction:ltr;text-orientation:mixed;dominant-baseline:auto;baseline-shift:baseline;text-anchor:start;white-space:normal;shape-padding:0;clip-rule:nonzero;display:inline;overflow:visible;visibility:visible;opacity:1;isolation:auto;mix-blend-mode:normal;color-interpolation:sRGB;color-interpolation-filters:linearRGB;solid-color:#000000;solid-opacity:1;vector-effect:none;fill:#000000;fill-opacity:1;fill-rule:nonzero;stroke:none;stroke-width:0.19294013;stroke-linecap:round;stroke-linejoin:round;stroke-miterlimit:7.03157997;stroke-dasharray:none;stroke-dashoffset:0;stroke-opacity:1;paint-order:markers fill stroke;color-rendering:auto;image-rendering:auto;shape-rendering:auto;text-rendering:auto;enable-background:accumulate"
         inkscape:connector-curvature="0" />
      <path
         id="path1993"
         d="m 24.912108,4.7578125 0.244141,0.140625 -0.945312,1.6386719 -0.244141,-0.140625 z"
         style="color:#000000;font-style:normal;font-variant:normal;font-weight:normal;font-stretch:normal;font-size:medium;line-height:normal;font-family:sans-serif;font-variant-ligatures:normal;font-variant-position:normal;font-variant-caps:normal;font-variant-numeric:normal;font-variant-alternates:normal;font-feature-settings:normal;text-indent:0;text-align:start;text-decoration:none;text-decoration-line:none;text-decoration-style:solid;text-decoration-color:#000000;letter-spacing:normal;word-spacing:normal;text-transform:none;writing-mode:lr-tb;direction:ltr;text-orientation:mixed;dominant-baseline:auto;baseline-shift:baseline;text-anchor:start;white-space:normal;shape-padding:0;clip-rule:nonzero;display:inline;overflow:visible;visibility:visible;opacity:1;isolation:auto;mix-blend-mode:normal;color-interpolation:sRGB;color-interpolation-filters:linearRGB;solid-color:#000000;solid-opacity:1;vector-effect:none;fill:#000000;fill-opacity:1;fill-rule:nonzero;stroke:none;stroke-width:0.19294013;stroke-linecap:round;stroke-linejoin:round;stroke-miterlimit:7.03157997;stroke-dasharray:none;stroke-dashoffset:0;stroke-opacity:1;paint-order:markers fill stroke;color-rendering:auto;image-rendering:auto;shape-rendering:auto;text-rendering:auto;enable-background:accumulate"
         inkscape:connector-curvature="0" />
      <path
         id="path1995"
         d="m 25.355472,3.5371094 0.634765,0.3671875 -0.421875,0.7304687 -0.167968,0.099609 -0.46875,-0.2714844 0.002,-0.1972656 z"
         style="color:#000000;font-style:normal;font-variant:normal;font-weight:normal;font-stretch:normal;font-size:medium;line-height:normal;font-family:sans-serif;font-variant-ligatures:normal;font-variant-position:normal;font-variant-caps:normal;font-variant-numeric:normal;font-variant-alternates:normal;font-feature-settings:normal;text-indent:0;text-align:start;text-decoration:none;text-decoration-line:none;text-decoration-style:solid;text-decoration-color:#000000;letter-spacing:normal;word-spacing:normal;text-transform:none;writing-mode:lr-tb;direction:ltr;text-orientation:mixed;dominant-baseline:auto;baseline-shift:baseline;text-anchor:start;white-space:normal;shape-padding:0;clip-rule:nonzero;display:inline;overflow:visible;visibility:visible;opacity:1;isolation:auto;mix-blend-mode:normal;color-interpolation:sRGB;color-interpolation-filters:linearRGB;solid-color:#000000;solid-opacity:1;vector-effect:none;fill:#000000;fill-opacity:1;fill-rule:nonzero;stroke:none;stroke-width:0.19294013;stroke-linecap:round;stroke-linejoin:round;stroke-miterlimit:7.03157997;stroke-dasharray:none;stroke-dashoffset:0;stroke-opacity:1;paint-order:markers fill stroke;color-rendering:auto;image-rendering:auto;shape-rendering:auto;text-rendering:auto;enable-background:accumulate"
         inkscape:connector-curvature="0" />
    </g>
  </g>
</svg>
