<?xml version="1.0" encoding="UTF-8" standalone="no"?>
<!-- Created with Inkscape (http://www.inkscape.org/) -->

<svg
   xmlns:dc="http://purl.org/dc/elements/1.1/"
   xmlns:cc="http://creativecommons.org/ns#"
   xmlns:rdf="http://www.w3.org/1999/02/22-rdf-syntax-ns#"
   xmlns:svg="http://www.w3.org/2000/svg"
   xmlns="http://www.w3.org/2000/svg"
   xmlns:sodipodi="http://sodipodi.sourceforge.net/DTD/sodipodi-0.dtd"
   xmlns:inkscape="http://www.inkscape.org/namespaces/inkscape"
   width="64pt"
   height="64pt"
   viewBox="0 0 22.577778 22.577778"
   version="1.1"
   id="svg8"
   inkscape:version="0.92.4 (5da689c313, 2019-01-14)"
   sodipodi:docname="3 - News.svg"
   inkscape:export-filename="E:\TR Design Studio Creative\Project Design\TR Creative Design\Icon Design\Partner Fiverr\Project - 001\Export\SVG\3 - News.png"
   inkscape:export-xdpi="576"
   inkscape:export-ydpi="576">
  <defs
     id="defs2">
    <pattern
       y="0"
       x="0"
       height="6"
       width="6"
       patternUnits="userSpaceOnUse"
       id="EMFhbasepattern" />
    <pattern
       y="0"
       x="0"
       height="6"
       width="6"
       patternUnits="userSpaceOnUse"
       id="EMFhbasepattern-5" />
  </defs>
  <sodipodi:namedview
     id="base"
     pagecolor="#ffffff"
     bordercolor="#666666"
     borderopacity="1.0"
     inkscape:pageopacity="0.0"
     inkscape:pageshadow="2"
     inkscape:zoom="6.609375"
     inkscape:cx="42.666667"
     inkscape:cy="42.666667"
     inkscape:document-units="pt"
     inkscape:current-layer="layer1"
     showgrid="false"
     units="pt"
     inkscape:snap-bbox="true"
     inkscape:bbox-nodes="true"
     inkscape:snap-nodes="false"
     showguides="false"
     inkscape:window-width="1366"
     inkscape:window-height="716"
     inkscape:window-x="-8"
     inkscape:window-y="-8"
     inkscape:window-maximized="1">
    <sodipodi:guide
       position="0.70555568,21.872231"
       orientation="79.999963,0"
       id="guide849"
       inkscape:locked="false" />
    <sodipodi:guide
       position="0.70555568,0.70557441"
       orientation="0,79.999996"
       id="guide851"
       inkscape:locked="false" />
    <sodipodi:guide
       position="21.872221,0.70557441"
       orientation="-79.999963,0"
       id="guide853"
       inkscape:locked="false" />
    <sodipodi:guide
       position="21.872221,21.872231"
       orientation="0,-79.999996"
       id="guide855"
       inkscape:locked="false" />
  </sodipodi:namedview>
  <metadata
     id="metadata5">
    <rdf:RDF>
      <cc:Work
         rdf:about="">
        <dc:format>image/svg+xml</dc:format>
        <dc:type
           rdf:resource="http://purl.org/dc/dcmitype/StillImage" />
        <dc:title></dc:title>
      </cc:Work>
    </rdf:RDF>
  </metadata>
  <g
     inkscape:label="Layer 1"
     inkscape:groupmode="layer"
     id="layer1"
     transform="translate(0,-274.42223)">
    <g
       id="g920"
       transform="matrix(1.3459015,0,0,1.3459015,-3.4738158,-102.48867)"
       style="stroke-width:0.74299639">
      <path
         inkscape:connector-curvature="0"
         style="fill:#00c853;fill-opacity:1;fill-rule:nonzero;stroke:none;stroke-width:0.19658446"
         d="m 10.925533,280.56768 c -1.1429919,0 -1.9896518,0.99483 -2.0108185,2.03198 0,0.0635 -0.063499,0.127 -0.1269989,0.127 -0.1058325,0 -0.169332,0.0635 -0.2539982,0.1905 -0.042333,0.127 -0.063499,0.29633 -0.063499,0.46567 h 4.9317966 c -0.02117,-0.16934 -0.04233,-0.35983 -0.08467,-0.46567 -0.0635,-0.16933 -0.148166,-0.21166 -0.275165,-0.21166 h -1.502822 c -0.169332,0 -0.169332,-0.23283 0,-0.254 0.465663,0 0.931326,0 1.396989,0 -0.0635,-0.97366 -0.91016,-1.88382 -2.010818,-1.88382 z"
         id="path873" />
      <path
         inkscape:connector-curvature="0"
         style="fill:#000000;fill-opacity:1;fill-rule:nonzero;stroke:none;stroke-width:0.19658446"
         d="m 9.2533791,283.63682 h 3.3443079 c -0.02117,0.67733 -0.126999,1.22766 -0.402164,1.58749 -0.275164,0.40217 -0.677328,0.61383 -1.26999,0.61383 -0.571496,0 -0.9948259,-0.21166 -1.2699909,-0.61383 -0.253998,-0.35983 -0.380997,-0.91016 -0.402163,-1.58749 z"
         id="path875" />
      <path
         inkscape:connector-curvature="0"
         style="fill:#000000;fill-opacity:1;fill-rule:nonzero;stroke:none;stroke-width:0.19658446"
         d="m 10.438703,286.09214 c -0.04233,0.16933 -0.105832,0.33866 -0.232832,0.42333 -0.08467,0.0847 -0.2116649,0.10583 -0.3386639,0.14816 0.8254939,0.48683 1.4604899,0.46567 2.1589839,0.0212 -0.126999,-0.0635 -0.253998,-0.0847 -0.35983,-0.16933 -0.126999,-0.0847 -0.169332,-0.254 -0.211665,-0.42333 z"
         id="path877" />
      <path
         inkscape:connector-curvature="0"
         style="fill:#000000;fill-opacity:1;fill-rule:nonzero;stroke:none;stroke-width:0.19658446"
         d="m 5.401074,287.40446 v 1.94732 l 5.39746,0.78316 v -1.94732 z m 0.3809972,0.381 c 0.0635,0 0.1058325,0.0423 0.1269991,0.0847 l 0.2963311,0.63499 v -0.48683 c -0.021167,-0.21166 0.2751646,-0.21166 0.2539981,0 v 1.07949 c 0,0.14817 -0.1904986,0.1905 -0.2539981,0.0635 l -0.2963311,-0.63499 v 0.48683 c 0.021166,0.1905 -0.2751647,0.1905 -0.2539981,0 v -1.07949 c 0,-0.0847 0.063499,-0.127 0.126999,-0.14817 0,0 0,0 0,0 z m 1.1006585,0.16933 c 0,0 0,0 0.021166,0 l 0.5503292,0.0847 c 0.169332,0.0212 0.1269992,0.29633 -0.042333,0.254 l -0.4021635,-0.0423 v 0.27517 l 0.4444966,0.0635 c 0.169332,0.0212 0.1269992,0.29633 -0.042333,0.254 l -0.4021632,-0.0424 v 0.27517 l 0.4444966,0.0635 c 0.169332,0.0212 0.1269992,0.29633 -0.042333,0.25399 l -0.5503292,-0.0847 c -0.0635,0 -0.1058326,-0.0635 -0.1058326,-0.127 -0.021166,-0.381 0,-0.71966 0,-1.10066 0,-0.0635 0.042333,-0.127 0.1269991,-0.127 z m 1.079492,0.16933 c 0.0635,0 0.1269989,0.0423 0.1481656,0.10584 l 0.1904984,0.78316 0.1058328,-0.1905 c 0.042333,-0.10583 0.1904984,-0.0847 0.2328315,0 l 0.1269989,0.254 0.1693323,-0.6985 c 0.042333,-0.16933 0.2963309,-0.10583 0.2539981,0.0847 l -0.2751648,1.03716 c -0.021166,0.127 -0.1904984,0.14816 -0.2328314,0.0212 l -0.1693321,-0.33873 -0.1481656,0.27516 c -0.0635,0.10584 -0.211665,0.0847 -0.2539981,-0.0423 l -0.2751645,-1.12182 c -0.021167,-0.0847 0.042333,-0.16934 0.1269989,-0.16934 z m 1.6509874,0.254 c 0,0 0,0 0.02117,0 l 0.5503299,0.0847 c 0.169332,0 0.126999,0.29633 -0.04233,0.254 l -0.4021639,-0.0635 v 0.27516 l 0.4444969,0.0635 c 0.0635,0.0212 0.105832,0.0635 0.105832,0.14817 v 0.52916 c 0,0.0847 -0.0635,0.14816 -0.148165,0.127 l -0.5503299,-0.0635 c -0.169332,-0.0423 -0.126999,-0.29633 0.04233,-0.27517 l 0.4021639,0.0635 v -0.27519 l -0.4444959,-0.0635 c -0.0635,-0.0212 -0.105833,-0.0635 -0.105833,-0.127 v -0.55033 c 0,-0.0847 0.04233,-0.127 0.126999,-0.127 z m -4.2121351,1.22766 v 1.48166 c 0.2328316,0.0847 0.4656632,0.16933 0.6561618,0.23283 v 0 c 0.7831609,0.21166 0.3598307,1.69332 -0.4021636,1.50282 -0.084666,-0.0212 -0.1693321,-0.0423 -0.2539982,-0.0423 v 2.73048 l 5.39746,0.78316 v -5.90546 z m 0.4233302,0.3175 1.5239887,0.21166 c 0.169332,0.0212 0.1481656,0.29633 -0.042333,0.27517 l -1.5239886,-0.23283 c -0.1693321,-0.0212 -0.1693321,-0.254 0,-0.254 0.021167,0 0.021167,0 0.042333,0 z m 2.2859831,0.31749 2.2859827,0.33867 c 0.0635,0.0212 0.126999,0.0635 0.126999,0.127 v 1.03716 c 0,0.0847 -0.0635,0.14816 -0.148165,0.127 l -2.3071498,-0.33867 c -0.063499,0 -0.1058325,-0.0635 -0.1058325,-0.127 v -1.01599 c 0,-0.0635 0.0635,-0.127 0.1269989,-0.14817 0,0 0.021167,0 0.021167,0 z m -2.3071496,0.1905 1.5239888,0.21167 c 0.169332,0.0423 0.1481656,0.29633 -0.042333,0.27516 l -1.5028222,-0.23283 c -0.1904986,-0.0212 -0.1693321,-0.27516 0.021166,-0.254 z m 2.4341485,0.10584 -0.021166,0.76199 2.0319848,0.29633 v -0.76199 z m -1.9684853,0.48683 c 0.021166,0 0.021166,0 0.042333,0 l 0.5503292,0.0635 c 0.1693321,0.0423 0.126999,0.29633 -0.042333,0.27516 l -0.5503293,-0.0847 c -0.1693321,0 -0.1693321,-0.25399 0,-0.25399 0,0 0,0 0,0 z m 0.8254939,1.14299 3.3443082,0.48683 c 0.169332,0.0212 0.126999,0.27516 -0.04233,0.254 l -3.3443081,-0.48683 c -0.1481656,-0.0212 -0.1481656,-0.23284 0,-0.254 0,-0.0212 0.021167,0 0.042333,0 z m -0.2328316,0.46566 c 0,0 0.021167,0 0.021167,0.0212 l 3.5559738,0.50799 c 0.169332,0.0212 0.126999,0.27517 -0.04233,0.254 l -3.5559743,-0.50802 c -0.1481656,-0.0212 -0.1481656,-0.254 0.021166,-0.27517 z m -0.5291627,0.4445 2.8151458,0.42333 c 0.1904988,0 0.1481658,0.29633 -0.042333,0.254 l -2.8151458,-0.42333 c -0.169332,0 -0.169332,-0.23284 0,-0.254 0,0 0.021167,0 0.042333,0 z m -0.3174977,0.69849 c 1.4816557,0.21167 2.9421448,0.4445 4.4238002,0.65616 0.0635,0 0.126999,0.0635 0.126999,0.127 v 1.03716 c 0,0.0635 -0.08467,0.127 -0.169332,0.127 l -4.4026337,-0.65616 c -0.0635,0 -0.1058326,-0.0635 -0.1058326,-0.127 v -1.01599 c 0,-0.0847 0.0635,-0.127 0.1269991,-0.14817 z m 0.1269991,0.29633 v 0.762 l 4.1486361,0.59266 v -0.76199 z"
         id="path879" />
      <path
         inkscape:connector-curvature="0"
         style="fill:#000000;fill-opacity:1;fill-rule:nonzero;stroke:none;stroke-width:0.19658446"
         d="m 16.449992,287.40446 -5.39746,0.78316 v 8.10678 l 5.39746,-0.78316 v -2.73048 c -0.0635,0.0212 -0.126999,0.0212 -0.169332,0.0423 -0.783161,0.1905 -1.185324,-1.29116 -0.402164,-1.50282 h -0.02117 c 0.190499,-0.0635 0.402164,-0.127 0.592662,-0.21167 z m -0.444496,0.46567 c 0.0635,0 0.126999,0.0635 0.126999,0.12699 v 1.03716 c 0,0.0635 -0.04233,0.10584 -0.105833,0.127 l -4.275635,0.61383 c -0.0635,0.0212 -0.148166,-0.0423 -0.148166,-0.127 v -1.03716 c 0,-0.0635 0.04233,-0.10583 0.126999,-0.127 l 4.254469,-0.61382 c 0,0 0.02117,0 0.02117,0 z m -0.127,0.27516 -4.00047,0.59266 v 0.762 l 4.00047,-0.59267 z m 0.127,1.26999 c 0.169332,0 0.190498,0.254 0.02117,0.254 l -4.275635,0.61383 c -0.169332,0.0212 -0.190499,-0.21167 -0.02117,-0.254 l 4.254469,-0.61383 c 0,0 0,0 0.02117,0 0,0 0,0 0,0 z m 0.0635,0.508 c 0.169332,0 0.169332,0.23283 0.02117,0.254 l -1.545156,0.23283 c -0.169332,0.0212 -0.211665,-0.254 -0.04233,-0.27517 l 1.545156,-0.21166 c 0,0 0,0 0,0 v 0 c 0,0 0.02117,0 0.02117,0 z m -2.30715,0.31749 c 0.0635,0 0.126999,0.0635 0.126999,0.14817 l 0.02117,1.01599 c 0,0.0635 -0.04233,0.127 -0.126999,0.127 l -2.285983,0.33867 c -0.08467,0.0212 -0.169332,-0.0423 -0.169332,-0.127 l 0.02117,-1.03716 c 0,-0.0635 0.04233,-0.10583 0.105833,-0.127 l 2.285983,-0.33867 c 0,0 0,0 0.02117,0 z m 2.30715,0.1905 c 0.169332,0 0.190499,0.254 0.02117,0.254 l -1.52399,0.23283 c -0.169332,0.0212 -0.211665,-0.23283 -0.04233,-0.27516 l 1.52399,-0.21167 c 0,0 0,0 0,0 v 0 c 0.02117,0 0.02117,0 0.02117,0 z m -2.434149,0.10584 -2.031985,0.29633 v 0.76199 l 2.031985,-0.29633 z m 2.434149,0.40216 c 0.169332,0 0.190499,0.254 0.02117,0.27516 l -1.037159,0.14817 c -0.190499,0.0212 -0.232832,-0.23283 -0.04233,-0.27516 l 1.037159,-0.14817 c 0,0 0,0 0.02117,0 v 0 c 0,0 0,0 0,0 z m -1.291157,1.22766 c 0.169332,-0.0212 0.190499,0.23283 0.02117,0.254 l -3.323143,0.48683 c -0.190498,0.0212 -0.232832,-0.254 -0.04233,-0.254 l 3.323143,-0.48683 c 0,0 0,0 0,0 0.02117,0 0.02117,0 0.02117,0 z m 0.0635,0.48683 c 0.169333,0 0.190499,0.254 0.02117,0.27516 l -3.407808,0.48683 c -0.169332,0.0212 -0.211666,-0.23283 -0.02117,-0.254 l 3.386641,-0.48683 c 0,-0.0212 0.02117,-0.0212 0.02117,-0.0212 z m 0.719662,0.42333 c 0.169332,0 0.190498,0.23283 0.02117,0.254 l -2.836312,0.42333 c -0.190499,0.0423 -0.211665,-0.254 -0.04233,-0.254 l 2.836312,-0.42333 c 0,0 0.02117,0 0.02117,0 z m 0.507996,0.65616 c 0.169332,0 0.169332,0.254 0.02117,0.27516 l -1.545156,0.21167 c -0.169332,0.0423 -0.211665,-0.23283 -0.04233,-0.254 l 1.545156,-0.23283 c 0,0 0,0 0.02117,0 z m -2.285983,0.33866 c 0.169332,0 0.169332,0.254 0,0.254 l -2.30715,0.33867 c -0.190498,0.0423 -0.232832,-0.23284 -0.04233,-0.254 l 2.328316,-0.33867 c 0,0 0,0 0.02117,0 z m 2.285983,0.16934 c 0.169332,0.0212 0.169332,0.25399 0.02117,0.27516 l -1.52399,0.21166 c -0.169332,0.0423 -0.211665,-0.23283 -0.04233,-0.25399 l 1.52399,-0.21167 c 0,-0.0212 0.02117,-0.0212 0.02117,-0.0212 z m -2.285983,0.33866 c 0.169332,0 0.169332,0.254 0,0.27516 l -2.328316,0.33867 c -0.169332,0.0212 -0.211666,-0.254 -0.02117,-0.27517 l 2.328316,-0.33866 c 0,0 0,0 0.02117,0 z m 2.285983,0.1905 c 0.169332,0 0.190499,0.23283 0.02117,0.254 l -1.037159,0.14816 c -0.190499,0.0423 -0.232832,-0.23283 -0.04233,-0.254 l 1.037159,-0.14816 c 0,0 0.02117,0 0.02117,0 z m -2.30715,0.33866 c 0.190499,-0.0212 0.190499,0.254 0.02117,0.254 l -1.037159,0.14817 c -0.169332,0.0423 -0.211665,-0.23284 -0.04233,-0.254 l 1.037159,-0.14817 c 0.02117,0 0.02117,0 0.02117,0 z"
         id="path881" />
      <path
         inkscape:connector-curvature="0"
         style="fill:#000000;fill-opacity:1;fill-rule:nonzero;stroke:none;stroke-width:0.19658446"
         d="m 8.2585529,287.04463 0.084666,0.508 -0.7408278,-0.10583 c 0.126999,-0.14817 0.2963312,-0.29634 0.6561618,-0.40217 z"
         id="path883" />
      <path
         inkscape:connector-curvature="0"
         style="fill:#000000;fill-opacity:1;fill-rule:nonzero;stroke:none;stroke-width:0.19658446"
         d="m 9.5073771,286.66363 c 0.42333,0.381 0.9524929,0.61383 1.4816549,0.61383 0.529163,0 1.058326,-0.23283 1.481656,-0.61383 l 0.994826,0.254 -0.105833,0.67733 -2.434148,0.33867 -2.3071494,-0.33867 -0.1058326,-0.67733 z"
         id="path885" />
      <path
         inkscape:connector-curvature="0"
         style="fill:#000000;fill-opacity:1;fill-rule:nonzero;stroke:none;stroke-width:0.19658446"
         d="m 13.719512,287.04463 c 0.359831,0.10583 0.550329,0.254 0.656162,0.40217 l -0.740828,0.10583 z"
         id="path887" />
      <path
         inkscape:connector-curvature="0"
         style="fill:#000000;fill-opacity:1;fill-rule:nonzero;stroke:none;stroke-width:0.19658446"
         d="m 5.2952415,291.34143 c 0.2328316,0.0847 0.4868297,0.16934 0.6984948,0.23283 0.4233302,0.127 0.1693321,1.10066 -0.2751646,0.99483 -0.2751646,-0.0635 -0.5714958,-0.10583 -0.8254939,-0.1905 -0.1481656,-0.0212 -0.2963311,-0.0635 -0.2328316,-0.29633 l 0.1693321,-0.61383 c 0.063499,-0.254 0.2539981,-0.1905 0.4656632,-0.127 z"
         id="path889" />
      <path
         inkscape:connector-curvature="0"
         style="fill:#000000;fill-opacity:1;fill-rule:nonzero;stroke:none;stroke-width:0.19658446"
         d="m 17.106154,291.46843 0.169332,0.61383 c 0.0635,0.21167 -0.0635,0.254 -0.232831,0.29633 -0.296332,0.10583 -0.571496,0.127 -0.846661,0.1905 -0.402163,0.10583 -0.698495,-0.86783 -0.253998,-0.99483 0.232832,-0.0847 0.48683,-0.16933 0.677328,-0.23283 0.253998,-0.0635 0.444497,-0.0847 0.48683,0.127 z"
         id="path891" />
    </g>
  </g>
</svg>
