<?xml version="1.0" encoding="utf-8"?>
<!-- Generator: Adobe Illustrator 16.0.0, SVG Export Plug-In . SVG Version: 6.00 Build 0)  -->
<!DOCTYPE svg PUBLIC "-//W3C//DTD SVG 1.1//EN" "http://www.w3.org/Graphics/SVG/1.1/DTD/svg11.dtd">
<svg version="1.1" id="Layer_1" xmlns="http://www.w3.org/2000/svg" xmlns:xlink="http://www.w3.org/1999/xlink" x="0px" y="0px"
	 width="64px" height="64px" viewBox="0 0 64 64" enable-background="new 0 0 64 64" xml:space="preserve">
<g>
	<path fill="#1D2E9D" d="M30.568,43.254c-0.716,2.649-1.336,5.594-1.941,8.578l0.002,0.01c-0.104,0.505-0.209,1.008-0.302,1.509
		c-0.373,0.78-1.043,1.37-1.854,1.632c-0.495,0.163-1.041,0.207-1.592,0.095l-3.323-0.688c0.537-2.099,1.032-4.15,1.485-6.057
		c1.238-5.237,2.156-9.396,2.417-10.59c-0.015-0.387,0.007-0.797,0.071-1.221c0.507-3.119,1.084-6.229,1.688-9.324
		c-1.51,0.625-3.031,1.244-4.539,1.869c-0.379,2.451-0.756,4.903-1.137,7.343c-0.616,3.95-6.657,2.616-6.045-1.31
		c0.495-3.162,0.131-9.781,3.583-11.207c3.679-1.522,7.346-3.041,11.016-4.561c0.088-0.04,0.171-0.056,0.253-0.083
		c2.604-1.688,6.601-0.761,8.14,1.938c3.28,3.544,7.112,5.898,12.188,5.746c3.979-0.12,4.279,6.061,0.292,6.184
		c-5.032,0.149-9.178-1.41-12.802-4.046c-0.631,3.182-1.225,6.375-1.746,9.589"/>
	<path fill="#1D2E9D" d="M32.642,37.068c3.807,1.133,7.374,2.847,10.724,5.058c0.941,0.622,1.332,1.448,1.356,2.278
		c0.1,0.27,0.175,0.569,0.2,0.921c0.268,3.919,0.53,7.85,0.799,11.77c0.284,4.172-6.193,5.071-6.477,0.865
		c-0.246-3.746-0.5-7.479-0.757-11.224c-3.025-1.867-11.266-4.557-11.703-5.076"/>
	<path fill="#1D2E9D" d="M28.629,51.842l-0.002-0.01c-0.085-1.36-1.069-2.563-2.475-2.854l-3.108-0.645l-9.116-1.876
		c-0.555-0.122-1.1-0.078-1.596,0.084c-1.031,0.336-1.849,1.194-2.085,2.323c-0.347,1.689,0.74,3.34,2.42,3.688l8.892,1.837
		l3.323,0.688c0.551,0.112,1.097,0.068,1.592-0.095c0.811-0.262,1.48-0.852,1.854-1.632L28.629,51.842z"/>
	<g>
		<path fill="#1D2E9D" d="M37.456,11.835l-4.808,0.276l-1.83,0.105c0.163,1.691,1.13,3.275,2.731,4.157
			c2.574,1.418,5.812,0.48,7.229-2.094c0.468-0.85,0.677-1.769,0.659-2.674L37.456,11.835z"/>
		<g>
			<g>
				<path fill="#1D2E9D" d="M42.161,9.588c0,0.16-0.12,0.29-0.28,0.3l-5.569,0.32l-0.12,0.98l-2.311,0.14l-0.16-0.97l-3.479,0.2
					c-0.22,0.01-0.41-0.15-0.44-0.37c-0.02-0.17-0.029-0.33-0.029-0.49v-0.01l4.33-0.34c0.149-0.01,0.27-0.14,0.25-0.3
					c-0.011-0.15-0.15-0.26-0.301-0.25l-4.26,0.33c0.17-3.25,2.9-5.89,6.271-5.83c3.189,0.05,5.779,2.51,6.069,5.61
					C42.151,9.128,42.161,9.358,42.161,9.588z"/>
			</g>
		</g>
		<path fill="#1D2E9D" d="M43.381,9.782c0.03,0.52-0.279,0.96-0.689,0.99l-6.5,0.42l-2.311,0.14l-4.16,0.27
			c-0.42,0.02-0.779-0.38-0.81-0.9v-0.09c0-0.48,0.29-0.87,0.68-0.9l0.181-0.01l12.359-0.79l0.431-0.03
			C42.981,8.862,43.341,9.262,43.381,9.782z"/>
	</g>
</g>
</svg>
