<?xml version="1.0" encoding="utf-8"?>
<!-- Generator: Adobe Illustrator 16.0.0, SVG Export Plug-In . SVG Version: 6.00 Build 0)  -->
<!DOCTYPE svg PUBLIC "-//W3C//DTD SVG 1.1//EN" "http://www.w3.org/Graphics/SVG/1.1/DTD/svg11.dtd">
<svg version="1.1" id="Layer_1" xmlns="http://www.w3.org/2000/svg" xmlns:xlink="http://www.w3.org/1999/xlink" x="0px" y="0px"
	 width="64px" height="64px" viewBox="0 0 64 64" enable-background="new 0 0 64 64" xml:space="preserve">
<g>
	<g>
		<g>
			<path id="Shape_1_" fill="#1D2E9D" d="M24.53,15.082c-1.739,0.718-3.57,1.188-5.438,1.397c-0.157,0.019-0.313-0.054-0.396-0.188
				c-1.507-2.225-3.164-4.345-4.958-6.344c-0.299-0.332-0.554-0.236-0.492,0.153c1.211,7.62-9.691,9.475-8.984,16.852
				c0.127,0.03,0.249,0.071,0.366,0.128l11.56,5.505c-0.652-7.339,10.198-9.2,8.992-16.805C25.114,15.39,24.726,14.987,24.53,15.082
				z"/>
			<path fill="#1D2E9D" d="M33.251,41.586c0.59,0.273,0.844,0.974,0.569,1.564l0,0c-0.273,0.589-0.975,0.844-1.563,0.567
				L2.478,29.833c-0.588-0.275-0.843-0.975-0.569-1.565l0,0c0.274-0.588,0.975-0.844,1.564-0.569L33.251,41.586z"/>
		</g>
		<g>
			<path id="Shape_2_" fill="#1D2E9D" d="M50.223,25.802c-1.386-1.273-2.587-2.733-3.565-4.339
				c-0.083-0.134-0.082-0.305,0.003-0.438c1.378-2.307,2.601-4.703,3.655-7.174c0.173-0.413-0.021-0.604-0.347-0.381
				c-6.394,4.318-12.684-4.78-19.07-1.021c0.027,0.128,0.042,0.257,0.039,0.387l-0.104,12.804
				c6.376-3.693,12.649,5.354,19.031,1.046C50.19,26.461,50.391,25.94,50.223,25.802z"/>
			<path fill="#1D2E9D" d="M29.889,44.907c0,0.652-0.527,1.179-1.177,1.179l0,0c-0.651,0-1.178-0.526-1.178-1.179V12.051
				c0-0.65,0.527-1.178,1.178-1.178l0,0c0.649,0,1.177,0.527,1.177,1.178V44.907z"/>
		</g>
		<g>
			<path id="Shape_3_" fill="#1D2E9D" d="M50.925,54.072c0.569-1.792,1.385-3.497,2.427-5.064c0.087-0.13,0.242-0.202,0.399-0.181
				c2.672,0.271,5.36,0.367,8.046,0.28c0.447-0.02,0.538-0.276,0.198-0.476c-6.615-3.969-1.029-13.515-7.134-17.717
				c-0.104,0.08-0.214,0.146-0.333,0.199l-11.649,5.318c6.042,4.22,0.496,13.727,7.095,17.691
				C50.315,54.325,50.873,54.285,50.925,54.072z"/>
			<path fill="#1D2E9D" d="M25.019,43.718c-0.59,0.276-1.29,0.021-1.564-0.567l0,0c-0.275-0.591-0.021-1.291,0.569-1.564
				L53.8,27.699c0.59-0.275,1.29-0.02,1.565,0.568l0,0c0.275,0.59,0.02,1.291-0.57,1.565L25.019,43.718z"/>
		</g>
	</g>
	<path fill="#1D2E9D" d="M33.946,39.62v6.79c0,0.582-0.476,1.058-1.058,1.058h-8.555c-0.582,0-1.058-0.476-1.058-1.058v-6.79"/>
</g>
</svg>
