<?xml version="1.0" encoding="utf-8"?>
<!-- Generator: Adobe Illustrator 16.0.0, SVG Export Plug-In . SVG Version: 6.00 Build 0)  -->
<!DOCTYPE svg PUBLIC "-//W3C//DTD SVG 1.1//EN" "http://www.w3.org/Graphics/SVG/1.1/DTD/svg11.dtd">
<svg version="1.1" id="Layer_1" xmlns="http://www.w3.org/2000/svg" xmlns:xlink="http://www.w3.org/1999/xlink" x="0px" y="0px"
	 width="64px" height="64px" viewBox="0 0 64 64" enable-background="new 0 0 64 64" xml:space="preserve">
<g>
	<path fill="#1D2E9D" d="M15.951,11.867v27.419v2.372v5.53c0,1.518,1.238,2.743,2.743,2.743h1.736v-8.273v-2.372V9.122h-1.736
		C17.189,9.122,15.951,10.361,15.951,11.867z"/>
	<path fill="#1D2E9D" d="M35.899,24.37c-0.42-0.2-0.87-0.32-1.31-0.32c-0.45,0-0.9,0.12-1.32,0.32c-0.74,0.4-1.57,0.62-2.41,0.62
		H29.6v8.14c0,0.59,0.12,1.16,0.37,1.71l0.01,0.021c0.33,0.71,0.89,1.26,1.58,1.6c0.6,0.3,1.17,0.65,1.69,1.06
		c0.62,0.471,1.18,1.051,1.68,1.681c0.49-0.63,1.05-1.21,1.67-1.681c0.53-0.409,1.11-0.779,1.7-1.06c0.66-0.31,1.19-0.85,1.52-1.49
		c0.29-0.58,0.43-1.2,0.43-1.84v-8.14h-1.94C37.47,24.99,36.64,24.77,35.899,24.37z M37.779,33.83c-0.46-0.26-0.68-0.64-0.77-0.811
		c-0.04,0.091-0.12,0.33-0.07,0.62c0.07,0.4,0.35,0.62,0.43,0.681c-0.34-0.11-0.96-0.36-1.56-0.91
		c-0.51-0.491-0.76-1.021-0.88-1.331c0,0.07,0,0.2-0.04,0.33c-0.05,0.18-0.15,0.32-0.21,0.38c-0.05-0.13-0.11-0.26-0.18-0.4
		c-0.06-0.11-0.12-0.22-0.18-0.33c0,0.06-0.01,0.43-0.31,0.65c-0.09,0.08-0.19,0.11-0.26,0.14c0.03-0.09,0.09-0.22,0.09-0.42
		c0-0.08-0.02-0.35-0.23-0.55c-0.14-0.16-0.31-0.21-0.4-0.23c-0.2-0.05-0.36-0.03-0.48-0.02c-0.11,0.03-0.28,0.06-0.48,0.17
		c0.11-0.11,0.22-0.25,0.33-0.45c0.25-0.37,0.26-0.54,0.26-0.62c0.01-0.34-0.18-0.6-0.22-0.66c-0.09-0.12-0.22-0.21-0.3-0.33
		c-0.05-0.07-0.09-0.15-0.11-0.22c-0.02-0.02-0.06-0.22-0.06-0.22s-0.28-0.01-0.43-0.03c-0.28-0.03-0.51-0.1-0.7-0.16
		c0.02-0.06,0.06-0.11,0.11-0.15c0.04-0.06,0.09-0.11,0.17-0.14c0.06-0.03,0.13-0.05,0.2-0.06c0.15-0.03,0.31-0.03,0.46-0.03
		c0.16,0,0.32,0,0.46,0.01c0.32,0.02,0.64,0.05,0.94,0.09c0.32,0.04,0.63,0.08,0.95,0.12c-0.31-0.1-0.62-0.17-0.93-0.23
		c-0.31-0.06-0.63-0.1-0.94-0.11c-0.04-0.01-0.08-0.01-0.12-0.01h-0.36c-0.08,0-0.15,0.01-0.24,0.01c-0.07,0.01-0.16,0.02-0.24,0.04
		s-0.16,0.05-0.23,0.09c-0.08,0.05-0.14,0.1-0.19,0.17c-0.03,0.06-0.07,0.13-0.09,0.19c-0.03,0.04-0.05,0.11-0.06,0.17
		c-0.09,0.26-0.04,0.51,0.01,0.64c-0.11-0.15-0.29-0.46-0.32-0.91c-0.01-0.16-0.03-0.75,0.4-1.2c0.54-0.57,1.35-0.43,1.42-0.42
		c0.05-0.03,0.13-0.09,0.22-0.17c0.79-0.51,1.75-0.3,2.13-0.21c1.05,0.23,1.71,0.88,1.94,1.11c1.88,1.88,1.53,4.921,1.52,5.041
		c0,0.02-0.02,0.09-0.02,0.17c0.02,0.3,0.14,0.55,0.28,0.75C38.319,34.05,38.06,33.99,37.779,33.83z"/>
	<path fill="#1D2E9D" d="M48.049,41.66V9.129h-7.71h-18.54v30.158h-0.001v10.641h0.001v0.002h21.28h4.97v-7.21h-0.001L48.049,41.66
		L48.049,41.66z M38.93,19.939c0.04,0.69,0.06,1.04,0.06,1.72c0.01,0,0.01,0.01,0.01,0.01c0.17-0.64,0.26-0.96,0.43-1.6
		c0.19,0.05,0.28,0.07,0.46,0.13c-0.32,1.06-0.48,1.59-0.79,2.64c-0.18-0.05-0.27-0.07-0.45-0.12c0-0.84-0.01-1.25-0.07-2.1
		c0,0,0,0-0.01,0c-0.17,0.79-0.26,1.18-0.45,1.97c-0.15-0.04-0.23-0.05-0.38-0.09c0.22-1.08,0.32-1.62,0.54-2.7
		C38.54,19.85,38.669,19.879,38.93,19.939z M36.379,19.52c0.31,0.03,0.46,0.05,0.77,0.09c0.27,0.04,0.46,0.12,0.56,0.24
		c0.1,0.13,0.13,0.29,0.1,0.5c-0.02,0.07-0.02,0.1-0.03,0.17c-0.05,0.28-0.19,0.44-0.41,0.48c0,0.01,0,0.01,0,0.01
		c0.11,0.05,0.18,0.13,0.21,0.23c0.03,0.11,0.03,0.24,0,0.4c-0.04,0.19-0.05,0.29-0.09,0.48c-0.01,0.08-0.02,0.14-0.02,0.19
		c-0.01,0.05,0,0.09,0.01,0.15c-0.18-0.04-0.27-0.05-0.45-0.08c-0.01-0.04-0.01-0.09-0.01-0.13s0.01-0.11,0.03-0.21
		c0.03-0.2,0.04-0.3,0.07-0.5c0.02-0.12,0.01-0.22-0.03-0.27c-0.04-0.06-0.11-0.09-0.22-0.11c-0.06-0.01-0.1-0.01-0.16-0.02
		c-0.06,0.47-0.09,0.71-0.14,1.18c-0.18-0.03-0.27-0.03-0.45-0.05C36.229,21.169,36.279,20.62,36.379,19.52z M34.64,19.589
		c0.14-0.13,0.34-0.19,0.59-0.18c0.26,0.01,0.46,0.08,0.58,0.21c0.13,0.13,0.19,0.3,0.17,0.52c-0.04,0.58-0.06,0.87-0.1,1.45
		c-0.02,0.22-0.09,0.39-0.22,0.5c-0.12,0.12-0.29,0.16-0.51,0.16c-0.22-0.01-0.38-0.07-0.5-0.19c-0.11-0.12-0.18-0.29-0.18-0.51
		c-0.01-0.58-0.01-0.87-0.02-1.45C34.45,19.879,34.509,19.709,34.64,19.589z M33.339,19.5c0.27-0.03,0.47,0.02,0.6,0.12
		s0.19,0.25,0.2,0.47v0.11c0.01,0.14-0.01,0.26-0.06,0.35c-0.05,0.09-0.13,0.16-0.23,0.2c0,0.01,0,0.01,0,0.01
		c0.24,0.06,0.37,0.25,0.38,0.56v0.24c0.01,0.21-0.04,0.37-0.15,0.49c-0.11,0.12-0.28,0.18-0.5,0.2c-0.28,0.02-0.42,0.03-0.69,0.06
		c-0.14-1.09-0.2-1.64-0.33-2.74C32.87,19.54,33.029,19.52,33.339,19.5z M31.419,19.75c0.27-0.05,0.47-0.03,0.61,0.05
		c0.14,0.09,0.22,0.24,0.25,0.45c0.01,0.07,0.02,0.1,0.03,0.17c0.04,0.28-0.05,0.48-0.24,0.58c0,0.01,0,0.01,0,0.01
		c0.12,0.02,0.21,0.07,0.27,0.16c0.06,0.08,0.1,0.21,0.13,0.37c0.02,0.19,0.04,0.29,0.07,0.48c0.01,0.08,0.02,0.14,0.03,0.19
		c0.01,0.05,0.03,0.09,0.06,0.14c-0.18,0.02-0.27,0.03-0.45,0.07c-0.02-0.05-0.04-0.09-0.05-0.12c-0.01-0.04-0.03-0.11-0.05-0.21
		c-0.03-0.2-0.04-0.3-0.08-0.5c-0.02-0.12-0.06-0.21-0.11-0.25c-0.05-0.04-0.13-0.05-0.24-0.03c-0.07,0.01-0.1,0.02-0.16,0.03
		c0.09,0.47,0.14,0.7,0.23,1.16c-0.18,0.04-0.26,0.05-0.44,0.09c-0.25-1.07-0.37-1.61-0.62-2.68
		C30.97,19.839,31.12,19.799,31.419,19.75z M30.279,20c0.27,1.07,0.41,1.6,0.68,2.67c-0.18,0.05-0.26,0.07-0.43,0.12
		c-0.31-1.06-0.46-1.59-0.76-2.66C29.97,20.08,30.08,20.049,30.279,20z M28.319,20.609c0.27-0.1,0.41-0.15,0.68-0.24
		c0.56,0.98,0.82,1.48,1.32,2.48c-0.17,0.05-0.26,0.08-0.43,0.13c-0.1-0.19-0.15-0.29-0.25-0.48c-0.2,0.07-0.3,0.1-0.5,0.18
		c0.05,0.21,0.07,0.32,0.12,0.53c-0.16,0.06-0.24,0.09-0.39,0.16C28.62,22.279,28.509,21.72,28.319,20.609z M40.859,33.13
		c0,0.73-0.17,1.44-0.5,2.11c-0.38,0.76-1.03,1.399-1.79,1.77c-0.56,0.271-1.1,0.601-1.59,0.98
		c-0.479,0.379-0.938,0.808-1.347,1.297h-0.004c-0.08,0.09-0.159,0.181-0.229,0.28l-0.47,0.61l-0.48-0.61
		c-0.08-0.1-0.15-0.19-0.229-0.28h-0.002c-0.409-0.479-0.848-0.918-1.327-1.297c-0.5-0.38-1.04-0.71-1.59-0.98
		c-0.82-0.399-1.49-1.069-1.86-1.89c-0.3-0.65-0.45-1.311-0.45-1.99v-8.74h1.87c0.74,0,1.48-0.2,2.14-0.55
		c0.99-0.52,2.19-0.52,3.18,0c0.65,0.35,1.39,0.55,2.13,0.55h2.55V33.13z M41.47,21.18c-0.33-0.14-0.5-0.2-0.84-0.32
		c-0.09,0.27-0.14,0.41-0.24,0.69c0.26,0.09,0.38,0.14,0.64,0.24c-0.06,0.15-0.09,0.22-0.15,0.36c-0.25-0.1-0.37-0.14-0.62-0.23
		c-0.12,0.32-0.17,0.48-0.29,0.8c0.3,0.1,0.45,0.16,0.75,0.28c-0.06,0.15-0.09,0.22-0.15,0.37c-0.46-0.19-0.69-0.28-1.16-0.43
		c0.34-1.05,0.51-1.57,0.85-2.62c0.55,0.17,0.82,0.27,1.36,0.49C41.56,20.959,41.529,21.04,41.47,21.18z"/>
	<path fill="#1D2E9D" d="M37.16,20.74c0.06-0.04,0.09-0.11,0.11-0.22c0.01-0.08,0.02-0.12,0.03-0.21c0.01-0.09,0-0.17-0.03-0.22
		c-0.04-0.05-0.1-0.08-0.19-0.09c-0.09-0.02-0.14-0.02-0.23-0.03c-0.04,0.31-0.06,0.47-0.09,0.78c0.07,0.01,0.1,0.01,0.17,0.02
		C37.029,20.779,37.109,20.77,37.16,20.74z"/>
	<path fill="#1D2E9D" d="M28.81,20.95c-0.01,0-0.01,0-0.01,0c0.1,0.54,0.15,0.82,0.26,1.36c0.16-0.06,0.25-0.09,0.41-0.15
		C29.209,21.669,29.08,21.43,28.81,20.95z"/>
	<path fill="#1D2E9D" d="M35.169,21.85c0.15,0.01,0.23-0.08,0.24-0.26c0.03-0.6,0.04-0.9,0.07-1.51c0-0.18-0.08-0.27-0.26-0.27
		c-0.17-0.01-0.26,0.08-0.27,0.26c-0.01,0.6-0.01,0.91-0.02,1.51C34.93,21.759,35.009,21.85,35.169,21.85z"/>
	<path fill="#1D2E9D" d="M33.37,20.62c0.1-0.01,0.17-0.04,0.22-0.08c0.04-0.05,0.06-0.13,0.06-0.23c-0.01-0.06-0.01-0.09-0.01-0.15
		c-0.01-0.1-0.03-0.18-0.08-0.22c-0.04-0.04-0.11-0.06-0.2-0.05c-0.1,0.01-0.15,0.01-0.25,0.02c0.03,0.29,0.04,0.44,0.07,0.73
		C33.259,20.629,33.29,20.629,33.37,20.62z"/>
	<path fill="#1D2E9D" d="M33.22,21.029c0.03,0.34,0.04,0.51,0.07,0.85c0.11-0.01,0.16-0.02,0.26-0.03c0.08,0,0.14-0.03,0.18-0.07
		c0.03-0.04,0.05-0.11,0.04-0.22c0-0.09-0.01-0.14-0.01-0.23c-0.01-0.13-0.04-0.22-0.09-0.26c-0.05-0.05-0.13-0.07-0.24-0.06
		C33.339,21.02,33.299,21.02,33.22,21.029z"/>
	<path fill="#1D2E9D" d="M31.58,20.919c0.1-0.02,0.17-0.05,0.21-0.11c0.04-0.05,0.05-0.13,0.03-0.23c-0.01-0.08-0.02-0.13-0.03-0.21
		c-0.02-0.1-0.05-0.16-0.1-0.2c-0.05-0.04-0.12-0.05-0.21-0.03c-0.09,0.01-0.14,0.02-0.23,0.04c0.06,0.31,0.1,0.46,0.16,0.77
		C31.479,20.939,31.509,20.93,31.58,20.919z"/>
	<path fill="#1D2E9D" d="M39.886,54.657c0,0.089,0.059,0.168,0.138,0.207c0.079,0.029,0.176,0.011,0.236-0.049l1.571-1.571
		l1.572,1.571c0.04,0.039,0.098,0.06,0.147,0.06c0.029,0,0.059,0,0.088-0.011c0.078-0.039,0.128-0.118,0.128-0.207v-3.958h-3.881
		V54.657z"/>
</g>
</svg>
