<?xml version="1.0" encoding="utf-8"?>
<!-- Generator: Adobe Illustrator 16.0.0, SVG Export Plug-In . SVG Version: 6.00 Build 0)  -->
<!DOCTYPE svg PUBLIC "-//W3C//DTD SVG 1.1//EN" "http://www.w3.org/Graphics/SVG/1.1/DTD/svg11.dtd">
<svg version="1.1" id="Layer_1" xmlns="http://www.w3.org/2000/svg" xmlns:xlink="http://www.w3.org/1999/xlink" x="0px" y="0px"
	 width="64px" height="64px" viewBox="0 0 64 64" enable-background="new 0 0 64 64" xml:space="preserve">
<g>
	<g>
		<path fill="#1D2E9D" d="M44.352,40.049c0.559-0.117,0.805-0.696,0.805-0.696l0.043-0.108l0.086-0.063
			c0.343-0.226,0.439-0.504,0.462-0.74c-1.738,0.88-4.141,0.9-4.773,0.89c-0.644,0.011-3.035-0.01-4.772-0.89
			c0.011,0.225,0.118,0.515,0.45,0.74l0.097,0.063l0.043,0.097c0,0.012,0.247,0.591,0.804,0.708l0.29,0.075v0.997h-1.383v0.816
			h1.201l-0.022,0.396c-0.01,0.012-0.021,0.419,0.321,0.827c0.301,0.364,0.376,1.082,0.172,1.791
			c-0.203,0.729-0.653,1.33-1.275,1.727c0.461,0.269,1.04,0.644,1.384,1.051c0.536-0.364,1.63-1.318,1.018-2.928
			c-0.01,0-0.653-1.181-0.332-2.574l0.076-0.289h3.86l0.064,0.289c0.322,1.394-0.322,2.574-0.343,2.628
			c-0.602,1.565,0.493,2.52,1.029,2.874c0.354-0.407,0.933-0.782,1.384-1.051c-0.612-0.396-1.063-0.998-1.277-1.727
			c-0.192-0.709-0.129-1.427,0.183-1.791c0.344-0.408,0.322-0.815,0.322-0.827l-0.021-0.396h1.19v-0.816h-1.373v-0.997
			L44.352,40.049z M43.226,41.121H38.7V40.35h4.525V41.121z"/>
		<path fill="#1D2E9D" d="M47.141,27.909H46.84c-4.247,0-8.097,2.349-10.049,6.059c-1.212-0.547-2.542-0.825-3.914-0.825
			c-1.384,0-2.703,0.312-3.915,0.857c-0.332,0.14-0.515,0.483-0.494,0.848c0.022,0.301,0.043,0.601,0.043,0.911
			c0,1.427-0.289,2.725-0.847,3.872c-0.15,0.312-0.461,0.493-0.794,0.493c-0.117,0-0.257-0.032-0.375-0.086
			c-0.44-0.214-0.611-0.74-0.397-1.168c0.44-0.913,0.665-1.963,0.665-3.111c0-0.643-0.128-2.338-0.161-2.542
			c-0.074-0.75-0.182-1.479-0.278-2.166c-0.032-0.204-0.063-0.418-0.086-0.622c-4.107-0.943-7.261-4.418-7.723-8.676
			c-1.426,2.005-2.638,4.14-3.624,6.381c-2.22,5.073-3.347,8.806-3.347,11.11c0,1.331-0.117,2.403-0.343,3.197
			c-0.482,1.694,0.278,3.507,1.845,4.407c6.285,3.594,13.438,5.491,20.678,5.491h1.255c4.493,0,8.966-0.729,13.234-2.155
			l0.558-0.183c2.488-0.837,4.173-3.175,4.173-5.813V34.021C52.943,30.74,50.336,27.994,47.141,27.909z M46.036,46.989
			c-0.633,0.311-1.716,0.964-1.941,1.404l-0.161,0.321l-0.332-0.16c-0.934-0.45-2.478-1.866-1.663-4.021
			c0.032-0.055,0.473-0.87,0.354-1.846h-2.638c-0.117,0.986,0.322,1.791,0.322,1.803c0.848,2.198-0.697,3.614-1.631,4.064
			l-0.332,0.16l-0.161-0.321c-0.225-0.44-1.308-1.094-1.94-1.404l-0.826-0.409l0.869-0.289c1.018-0.332,1.372-1.115,1.501-1.545
			c0.161-0.557,0.064-0.997-0.033-1.104c-0.289-0.344-0.407-0.697-0.461-0.955h-1.211V40.37h0.879
			c-0.257-0.225-0.418-0.493-0.493-0.632c-0.858-0.654-0.74-1.619-0.558-2.037l0.182-0.408l0.365,0.246
			c0.729,0.483,1.716,0.741,2.617,0.88c0.9,0.14,1.715,0.16,2.102,0.16c0,0,0.054,0,0.129,0h0.129c0.782,0,3.238-0.074,4.708-1.04
			l0.376-0.246l0.183,0.408c0.182,0.418,0.289,1.383-0.569,2.037c-0.075,0.139-0.235,0.407-0.493,0.632h0.88v2.317h-1.201
			c-0.055,0.258-0.183,0.611-0.473,0.955c-0.086,0.106-0.182,0.547-0.021,1.104c0.117,0.43,0.481,1.213,1.49,1.545l0.868,0.289
			L46.036,46.989z"/>
	</g>
	<g>
		<path fill="#1D2E9D" d="M26.924,26.321c-2.488-0.687-4.312-2.971-4.312-5.674v-0.182c0.097-3.174,2.691-5.716,5.898-5.716
			c3.261,0,5.899,2.638,5.899,5.898c0,3.25-2.639,5.899-5.899,5.899C27.965,26.546,27.429,26.46,26.924,26.321z"/>
		<path fill="#1D2E9D" d="M28.511,11.66c-4.879,0-8.837,3.872-8.977,8.719c-0.011,0.086-0.011,0.182-0.011,0.268
			c0,4.119,2.778,7.594,6.564,8.645c0.771,0.215,1.587,0.333,2.423,0.333c4.966,0,8.988-4.022,8.988-8.977
			C37.499,15.682,33.477,11.66,28.511,11.66z M28.511,27.619c-0.632,0-1.265-0.096-1.876-0.268
			c-3.003-0.826-5.095-3.582-5.095-6.703c0-0.096,0-0.204,0.011-0.3c0.043-1.309,0.45-2.531,1.137-3.55
			c0.011-0.011,0.021-0.032,0.032-0.043c1.233-1.855,3.357-3.078,5.791-3.078c0.815,0,1.588,0.139,2.307,0.397
			c2.713,0.944,4.665,3.529,4.665,6.574C35.482,24.487,32.361,27.619,28.511,27.619z"/>
	</g>
</g>
</svg>
