<?xml version="1.0" encoding="utf-8"?>
<!-- Generator: Adobe Illustrator 16.0.0, SVG Export Plug-In . SVG Version: 6.00 Build 0)  -->
<!DOCTYPE svg PUBLIC "-//W3C//DTD SVG 1.1//EN" "http://www.w3.org/Graphics/SVG/1.1/DTD/svg11.dtd">
<svg version="1.1" id="Layer_1" xmlns="http://www.w3.org/2000/svg" xmlns:xlink="http://www.w3.org/1999/xlink" x="0px" y="0px"
	 width="64px" height="64px" viewBox="0 0 64 64" enable-background="new 0 0 64 64" xml:space="preserve">
<g>
	<path fill="#1D2E9D" d="M31.49,27.984v3.09h6v28.12h2.439v-17.16c0-2.17,0.87-4.12,2.29-5.54c1.42-1.41,3.37-2.29,5.53-2.29
		c4.32,0,7.82,3.5,7.82,7.83v17.16h2.35v-28.12h2.47v-3.09H31.49z"/>
	<path fill="#1D2E9D" d="M26.178,43.502c0.897,1.851,2.866,7.713,4.287,13.368c0.354,1.404,1.618,2.342,3.003,2.342
		c0.252,0,0.506-0.031,0.758-0.094c1.657-0.418,2.664-2.104,2.25-3.761c-0.811-3.209-3.578-13.673-5.282-16.268
		c-1.261-1.907-4.478-2.961-9.578-3.143l-0.977-8.76l-0.011-0.195c1.665,0.416,3.441,0.631,5.413,0.631
		c2.174,0,4.529-0.248,7.063-0.752c1.52-0.303,2.506-1.78,2.206-3.3c-0.301-1.519-1.78-2.512-3.299-2.206
		c-6.044,1.202-10.585,0.747-13.518-1.338c0,0-1.574-1.127-3.169-1.313c0,0-0.682-0.125-1.378-0.034
		c-0.664,0.092-1.391,0.327-1.391,0.327l-0.017,0.005c-2.041,0.749-4.082,2.703-3.799,5.267l1.529,13.748
		c0.334,2.985,2.484,4.107,6.256,3.996c0.005,0,0.016,0,0.02,0C20.515,41.799,25.436,41.892,26.178,43.502z"/>
	<path fill="#1D2E9D" d="M11.723,46.724v8.08h-1.76c-2.31,0-4.262,2.029-4.262,4.425c0,0.126,0.104,0.226,0.228,0.226h2.225
		c0.126,0,0.227-0.1,0.227-0.226c0-0.881,0.726-1.625,1.583-1.625h7.311c0.859,0,1.579,0.744,1.579,1.625
		c0,0.126,0.104,0.226,0.229,0.226h2.224c0.124,0,0.228-0.1,0.228-0.226c0-2.396-1.952-4.425-4.259-4.425H15.51v-7.669h5.618
		c0.121,0,0.222-0.104,0.222-0.226V43.57c0-0.063-0.023-0.116-0.065-0.162c-0.041-0.04-0.1-0.065-0.156-0.065l0,0
		c0,0-6.109,0.017-6.188,0.017c-5.595,0-6.577-4.099-6.676-7.427L7.486,25.128c-0.003-0.118-0.103-0.217-0.224-0.217H3.84
		c-0.062,0-0.123,0.025-0.164,0.07c-0.043,0.044-0.067,0.103-0.064,0.164l0.831,10.795C4.931,41.105,6.211,46.575,11.723,46.724z"/>
	<path fill="#1D2E9D" d="M36.722,24.856v1.98c0,0.097,0.074,0.175,0.172,0.175h12.234c0.076,0,0.145-0.053,0.165-0.128l4.016-14.718
		c0.015-0.042,0.005-0.088-0.017-0.128c-0.022-0.041-0.062-0.072-0.106-0.083l-1.906-0.521c-0.095-0.024-0.188,0.028-0.216,0.123
		L47.48,24.685H36.896C36.799,24.685,36.722,24.762,36.722,24.856z"/>
	<g>
		<path fill="#1D2E9D" d="M15.815,12.6l-4.535,0.26l-1.727,0.099c0.153,1.595,1.066,3.089,2.576,3.921
			c2.429,1.338,5.481,0.453,6.818-1.975c0.442-0.801,0.639-1.668,0.623-2.522L15.815,12.6z"/>
		<g>
			<g>
				<path fill="#1D2E9D" d="M20.252,10.479c0,0.151-0.112,0.273-0.264,0.283l-5.253,0.302l-0.114,0.924l-2.179,0.132l-0.151-0.915
					L9.01,11.395c-0.207,0.009-0.387-0.141-0.416-0.349c-0.018-0.16-0.027-0.311-0.027-0.462v-0.01l4.084-0.321
					c0.141-0.009,0.255-0.132,0.236-0.283c-0.011-0.141-0.143-0.245-0.284-0.236l-4.019,0.312c0.161-3.066,2.736-5.556,5.915-5.5
					c3.009,0.048,5.451,2.368,5.725,5.292C20.243,10.046,20.252,10.263,20.252,10.479z"/>
			</g>
		</g>
		<path fill="#1D2E9D" d="M21.403,10.663c0.028,0.491-0.265,0.906-0.65,0.934l-6.132,0.396l-2.179,0.132l-3.924,0.254
			c-0.396,0.019-0.735-0.358-0.764-0.849v-0.084c0-0.453,0.273-0.821,0.642-0.849l0.17-0.009l11.657-0.745l0.406-0.028
			C21.026,9.795,21.365,10.172,21.403,10.663z"/>
	</g>
</g>
</svg>
