<?xml version="1.0" encoding="UTF-8" standalone="no"?>
<!-- Created with Inkscape (http://www.inkscape.org/) -->

<svg
   xmlns:dc="http://purl.org/dc/elements/1.1/"
   xmlns:cc="http://creativecommons.org/ns#"
   xmlns:rdf="http://www.w3.org/1999/02/22-rdf-syntax-ns#"
   xmlns:svg="http://www.w3.org/2000/svg"
   xmlns="http://www.w3.org/2000/svg"
   xmlns:sodipodi="http://sodipodi.sourceforge.net/DTD/sodipodi-0.dtd"
   xmlns:inkscape="http://www.inkscape.org/namespaces/inkscape"
   width="64pt"
   height="64pt"
   viewBox="0 0 22.577778 22.577778"
   version="1.1"
   id="svg8"
   inkscape:version="0.92.4 (5da689c313, 2019-01-14)"
   sodipodi:docname="4 - History.svg"
   inkscape:export-filename="E:\TR Design Studio Creative\Project Design\TR Creative Design\Icon Design\Partner Fiverr\Project - 001\Export\Revisi - 001\Main File\SVG\4 - History.png"
   inkscape:export-xdpi="576"
   inkscape:export-ydpi="576">
  <defs
     id="defs2">
    <pattern
       y="0"
       x="0"
       height="6"
       width="6"
       patternUnits="userSpaceOnUse"
       id="EMFhbasepattern" />
    <pattern
       y="0"
       x="0"
       height="6"
       width="6"
       patternUnits="userSpaceOnUse"
       id="EMFhbasepattern-5" />
  </defs>
  <sodipodi:namedview
     id="base"
     pagecolor="#ffffff"
     bordercolor="#666666"
     borderopacity="1.0"
     inkscape:pageopacity="0.0"
     inkscape:pageshadow="2"
     inkscape:zoom="6.609375"
     inkscape:cx="42.666667"
     inkscape:cy="42.666667"
     inkscape:document-units="pt"
     inkscape:current-layer="layer1"
     showgrid="false"
     units="pt"
     inkscape:snap-bbox="true"
     inkscape:bbox-nodes="true"
     inkscape:snap-nodes="false"
     showguides="false"
     inkscape:window-width="1366"
     inkscape:window-height="716"
     inkscape:window-x="-8"
     inkscape:window-y="-8"
     inkscape:window-maximized="1">
    <sodipodi:guide
       position="0.70555568,21.872231"
       orientation="79.999963,0"
       id="guide849"
       inkscape:locked="false" />
    <sodipodi:guide
       position="0.70555568,0.70557441"
       orientation="0,79.999996"
       id="guide851"
       inkscape:locked="false" />
    <sodipodi:guide
       position="21.872221,0.70557441"
       orientation="-79.999963,0"
       id="guide853"
       inkscape:locked="false" />
    <sodipodi:guide
       position="21.872221,21.872231"
       orientation="0,-79.999996"
       id="guide855"
       inkscape:locked="false" />
  </sodipodi:namedview>
  <metadata
     id="metadata5">
    <rdf:RDF>
      <cc:Work
         rdf:about="">
        <dc:format>image/svg+xml</dc:format>
        <dc:type
           rdf:resource="http://purl.org/dc/dcmitype/StillImage" />
        <dc:title />
      </cc:Work>
    </rdf:RDF>
  </metadata>
  <g
     inkscape:label="Layer 1"
     inkscape:groupmode="layer"
     id="layer1"
     transform="translate(0,-274.42223)">
    <path
       inkscape:connector-curvature="0"
       id="path9706"
       d="m 2.3691352,277.12893 c -0.9205444,0 -1.66356925,0.74021 -1.6635792,1.66076 9.95e-6,0.92055 0.7430348,1.66357 1.6635792,1.66357 0.9205545,0 1.6635794,-0.74302 1.6635794,-1.66357 -1e-5,-0.92055 -0.7430348,-1.66076 -1.6635794,-1.66076 z m 1.1503027,0 c 0.097854,0.068 0.1899704,0.1434 0.2742203,0.2271 0.032021,0.0218 0.061954,0.0458 0.087214,0.0759 0.054297,0.0649 0.1027963,0.13429 0.1483621,0.20603 0.2276301,0.32713 0.3621,0.72382 0.3621,1.15169 0,0.039 -0.00298,0.0771 -0.00597,0.1152 7.368e-4,0.0274 0.00597,0.0537 0.00597,0.0815 v 13.44643 c 0,1.03227 0.7908977,1.86045 1.8231888,1.86045 0.7334383,0 1.822483,-0.82489 1.822483,-1.86045 4.21e-4,-0.0909 0.068617,-0.16722 0.1589033,-0.17788 2.4141706,-2e-5 4.8322406,0 7.2477356,0 v -5.05401 c -0.08095,0.0814 -0.172327,0.16023 -0.286869,0.23062 -0.362806,0.22299 -0.904524,0.37033 -1.690996,0.38039 -0.338483,0.58911 -0.528044,1.02303 -0.528044,1.02303 a 0.18061421,0.18061421 0 1 1 -0.334683,-0.13565 c 0,0 0.193927,-0.45957 0.549137,-1.08279 -0.516787,-1.48704 0.115037,-2.86777 1.106,-3.91075 0.359344,-0.37821 0.766225,-0.71449 1.185455,-1.00546 v -3.71387 c 0,-1.03229 -0.825346,-1.85764 -1.857636,-1.85764 z m 2.3231,1.67693 h 6.5214281 c 0.322381,0 0.587094,0.26474 0.587094,0.58711 0,0.32238 -0.264713,0.58709 -0.587094,0.58709 H 5.8425379 c -0.3223815,0 -0.5878008,-0.26471 -0.5878008,-0.58709 0,-0.32237 0.2654193,-0.58711 0.5878008,-0.58711 z m 0,0.35859 c -0.1291692,0 -0.2285051,0.0995 -0.2285051,0.22852 0,0.1292 0.099346,0.2285 0.2285051,0.2285 h 6.5214281 c 0.129168,0 0.22569,-0.0993 0.22569,-0.2285 0,-0.12933 -0.09656,-0.22852 -0.22569,-0.22852 z m 0,2.29076 h 5.2986991 c 0.322382,0 0.587105,0.26473 0.587105,0.58712 0,0.32237 -0.264723,0.58709 -0.587105,0.58709 H 5.8425379 c -0.3223815,0 -0.5878008,-0.26472 -0.5878008,-0.58709 0,-0.32239 0.2654193,-0.58712 0.5878008,-0.58712 z m 16.0296831,0.0394 c -0.44272,0.17461 -0.759473,0.3144 -1.236074,0.49992 a 0.18001622,0.18001622 0 0 1 -0.0183,0.005 c -0.696067,0.18644 -1.154072,0.0881 -1.549675,-0.005 -0.395593,-0.0936 -0.724816,-0.17995 -1.317639,-0.0211 -0.930876,0.24943 -2.277405,0.97506 -3.231531,1.97927 -0.850277,0.89493 -1.345037,1.98941 -1.082094,3.18513 0.800912,-1.25784 2.182573,-2.90006 4.177923,-3.43473 a 0.18001622,0.18001622 0 0 1 0.02953,-0.008 0.18001622,0.18001622 0 0 1 0.06325,0.35366 c -1.894531,0.50765 -3.234138,2.14074 -4.002849,3.3595 0.573878,-0.0348 1.017374,-0.13134 1.263501,-0.28265 0.305178,-0.18758 0.42313,-0.41067 0.475309,-0.60537 0.110543,-0.41258 0.403707,-0.67363 0.760068,-0.80016 0.356362,-0.12653 0.777464,-0.14623 1.224827,-0.14623 1.625056,0 3.632257,-1.53928 4.44371,-4.07951 z m -16.0296831,0.31921 c -0.1291692,0 -0.2285051,0.0994 -0.2285051,0.22851 0,0.1292 0.099346,0.22571 0.2285051,0.22571 h 5.2986991 c 0.129179,0 0.225701,-0.0967 0.225701,-0.22571 0,-0.1292 -0.09656,-0.22851 -0.225701,-0.22851 z m 0,2.29075 h 4.4830801 c 0.322392,0 0.587104,0.26474 0.587104,0.58711 0,0.32239 -0.264712,0.58709 -0.587104,0.58709 H 5.8425379 c -0.3223815,0 -0.5878008,-0.2647 -0.5878008,-0.58709 0,-0.32237 0.2654193,-0.58711 0.5878008,-0.58711 z m 0,0.3586 c -0.1291692,0 -0.2285051,0.0995 -0.2285051,0.22851 0,0.12907 0.099346,0.22571 0.2285051,0.22571 h 4.4830801 c 0.129179,0 0.228514,-0.0967 0.228514,-0.22571 0,-0.1292 -0.09934,-0.22851 -0.228514,-0.22851 z m 0,2.28795 h 4.4830801 c 0.322392,0 0.587104,0.26752 0.587104,0.5899 0,0.32239 -0.264712,0.58782 -0.587104,0.58782 H 5.8425379 c -0.3223815,0 -0.5878008,-0.26543 -0.5878008,-0.58782 0,-0.32238 0.2654193,-0.5899 0.5878008,-0.5899 z m 0,0.36141 c -0.1291692,0 -0.2285051,0.0994 -0.2285051,0.22849 0,0.12907 0.099346,0.22641 0.2285051,0.22641 h 4.4830801 c 0.129179,0 0.228514,-0.0974 0.228514,-0.22641 0,-0.1292 -0.09934,-0.22849 -0.228514,-0.22849 z m 0,2.28863 h 4.4830801 c 0.322392,0 0.587104,0.26472 0.587104,0.58711 0,0.32238 -0.264712,0.5871 -0.587104,0.5871 H 5.8425379 c -0.3223815,0 -0.5878008,-0.26472 -0.5878008,-0.5871 0,-0.32239 0.2654193,-0.58711 0.5878008,-0.58711 z m 0,0.36142 c -0.1291692,0 -0.2285051,0.0966 -0.2285051,0.22569 0,0.1292 0.099346,0.22851 0.2285051,0.22851 h 4.4830801 c 0.129179,0 0.228514,-0.0993 0.228514,-0.22851 0,-0.12907 -0.09934,-0.22569 -0.228514,-0.22569 z m 2.550919,2.85113 c -0.074683,0.79635 -0.5053209,1.31396 -1.2810829,1.67975 h 7.387654 1.124289 c 0.478778,0 0.898994,-0.18778 1.212177,-0.49148 0.313184,-0.3037 0.519293,-0.72356 0.570935,-1.18827 h -1.783112 z"
       style="color:#000000;font-style:normal;font-variant:normal;font-weight:normal;font-stretch:normal;font-size:medium;line-height:normal;font-family:sans-serif;font-variant-ligatures:normal;font-variant-position:normal;font-variant-caps:normal;font-variant-numeric:normal;font-variant-alternates:normal;font-feature-settings:normal;text-indent:0;text-align:start;text-decoration:none;text-decoration-line:none;text-decoration-style:solid;text-decoration-color:#000000;letter-spacing:normal;word-spacing:normal;text-transform:none;writing-mode:lr-tb;direction:ltr;text-orientation:mixed;dominant-baseline:auto;baseline-shift:baseline;text-anchor:start;white-space:normal;shape-padding:0;clip-rule:nonzero;display:inline;overflow:visible;visibility:visible;opacity:1;isolation:auto;mix-blend-mode:normal;color-interpolation:sRGB;color-interpolation-filters:linearRGB;solid-color:#000000;solid-opacity:1;vector-effect:none;fill:#1d2e9d;fill-opacity:1;fill-rule:nonzero;stroke:none;stroke-width:0.26458332;stroke-linecap:round;stroke-linejoin:round;stroke-miterlimit:7.03157997;stroke-dasharray:none;stroke-dashoffset:0;stroke-opacity:1;paint-order:markers fill stroke;color-rendering:auto;image-rendering:auto;shape-rendering:auto;text-rendering:auto;enable-background:accumulate" />
  </g>
</svg>
