<?xml version="1.0" encoding="utf-8"?>
<!-- Generator: Adobe Illustrator 16.0.0, SVG Export Plug-In . SVG Version: 6.00 Build 0)  -->
<!DOCTYPE svg PUBLIC "-//W3C//DTD SVG 1.1//EN" "http://www.w3.org/Graphics/SVG/1.1/DTD/svg11.dtd">
<svg version="1.1" id="Layer_1" xmlns="http://www.w3.org/2000/svg" xmlns:xlink="http://www.w3.org/1999/xlink" x="0px" y="0px"
	 width="64px" height="64px" viewBox="0 0 64 64" enable-background="new 0 0 64 64" xml:space="preserve">
<g>
	<g>
		<path fill="#1D2E9D" d="M23.12,37.62c-0.06-0.24-0.19-0.34-0.38-0.3c-0.2,0.05-0.28,0.189-0.22,0.43l0.45,2
			c0.05,0.24,0.18,0.34,0.38,0.29c0.2-0.04,0.27-0.18,0.22-0.42L23.12,37.62z M23.12,37.62c-0.06-0.24-0.19-0.34-0.38-0.3
			c-0.2,0.05-0.28,0.189-0.22,0.43l0.45,2c0.05,0.24,0.18,0.34,0.38,0.29c0.2-0.04,0.27-0.18,0.22-0.42L23.12,37.62z M23.12,37.62
			c-0.06-0.24-0.19-0.34-0.38-0.3c-0.2,0.05-0.28,0.189-0.22,0.43l0.45,2c0.05,0.24,0.18,0.34,0.38,0.29
			c0.2-0.04,0.27-0.18,0.22-0.42L23.12,37.62z M23.12,37.62c-0.06-0.24-0.19-0.34-0.38-0.3c-0.2,0.05-0.28,0.189-0.22,0.43l0.45,2
			c0.05,0.24,0.18,0.34,0.38,0.29c0.2-0.04,0.27-0.18,0.22-0.42L23.12,37.62z M23.12,37.62c-0.06-0.24-0.19-0.34-0.38-0.3
			c-0.2,0.05-0.28,0.189-0.22,0.43l0.45,2c0.05,0.24,0.18,0.34,0.38,0.29c0.2-0.04,0.27-0.18,0.22-0.42L23.12,37.62z M23.12,37.62
			c-0.06-0.24-0.19-0.34-0.38-0.3c-0.2,0.05-0.28,0.189-0.22,0.43l0.45,2c0.05,0.24,0.18,0.34,0.38,0.29
			c0.2-0.04,0.27-0.18,0.22-0.42L23.12,37.62z M23.12,37.62c-0.06-0.24-0.19-0.34-0.38-0.3c-0.2,0.05-0.28,0.189-0.22,0.43l0.45,2
			c0.05,0.24,0.18,0.34,0.38,0.29c0.2-0.04,0.27-0.18,0.22-0.42L23.12,37.62z M23.12,37.62c-0.06-0.24-0.19-0.34-0.38-0.3
			c-0.2,0.05-0.28,0.189-0.22,0.43l0.45,2c0.05,0.24,0.18,0.34,0.38,0.29c0.2-0.04,0.27-0.18,0.22-0.42L23.12,37.62z M23.12,37.62
			c-0.06-0.24-0.19-0.34-0.38-0.3c-0.2,0.05-0.28,0.189-0.22,0.43l0.45,2c0.05,0.24,0.18,0.34,0.38,0.29
			c0.2-0.04,0.27-0.18,0.22-0.42L23.12,37.62z M23.12,37.62c-0.06-0.24-0.19-0.34-0.38-0.3c-0.2,0.05-0.28,0.189-0.22,0.43l0.45,2
			c0.05,0.24,0.18,0.34,0.38,0.29c0.2-0.04,0.27-0.18,0.22-0.42L23.12,37.62z M23.12,37.62c-0.06-0.24-0.19-0.34-0.38-0.3
			c-0.2,0.05-0.28,0.189-0.22,0.43l0.45,2c0.05,0.24,0.18,0.34,0.38,0.29c0.2-0.04,0.27-0.18,0.22-0.42L23.12,37.62z M31.41,37.8
			L30.98,35.9c-0.03-0.131-0.07-0.21-0.14-0.261c-0.06-0.04-0.14-0.05-0.23-0.029l-0.29,0.06l0.59,2.62l0.29-0.07
			c0.09-0.02,0.16-0.06,0.2-0.13C31.43,38.02,31.44,37.93,31.41,37.8z M23.12,37.62c-0.06-0.24-0.19-0.34-0.38-0.3
			c-0.2,0.05-0.28,0.189-0.22,0.43l0.45,2c0.05,0.24,0.18,0.34,0.38,0.29c0.2-0.04,0.27-0.18,0.22-0.42L23.12,37.62z M31.41,37.8
			L30.98,35.9c-0.03-0.131-0.07-0.21-0.14-0.261c-0.06-0.04-0.14-0.05-0.23-0.029l-0.29,0.06l0.59,2.62l0.29-0.07
			c0.09-0.02,0.16-0.06,0.2-0.13C31.43,38.02,31.44,37.93,31.41,37.8z M23.12,37.62c-0.06-0.24-0.19-0.34-0.38-0.3
			c-0.2,0.05-0.28,0.189-0.22,0.43l0.45,2c0.05,0.24,0.18,0.34,0.38,0.29c0.2-0.04,0.27-0.18,0.22-0.42L23.12,37.62z M31.41,37.8
			L30.98,35.9c-0.03-0.131-0.07-0.21-0.14-0.261c-0.06-0.04-0.14-0.05-0.23-0.029l-0.29,0.06l0.59,2.62l0.29-0.07
			c0.09-0.02,0.16-0.06,0.2-0.13C31.43,38.02,31.44,37.93,31.41,37.8z M23.12,37.62c-0.06-0.24-0.19-0.34-0.38-0.3
			c-0.2,0.05-0.28,0.189-0.22,0.43l0.45,2c0.05,0.24,0.18,0.34,0.38,0.29c0.2-0.04,0.27-0.18,0.22-0.42L23.12,37.62z M31.41,37.8
			L30.98,35.9c-0.03-0.131-0.07-0.21-0.14-0.261c-0.06-0.04-0.14-0.05-0.23-0.029l-0.29,0.06l0.59,2.62l0.29-0.07
			c0.09-0.02,0.16-0.06,0.2-0.13C31.43,38.02,31.44,37.93,31.41,37.8z M23.12,37.62c-0.06-0.24-0.19-0.34-0.38-0.3
			c-0.2,0.05-0.28,0.189-0.22,0.43l0.45,2c0.05,0.24,0.18,0.34,0.38,0.29c0.2-0.04,0.27-0.18,0.22-0.42L23.12,37.62z M31.41,37.8
			L30.98,35.9c-0.03-0.131-0.07-0.21-0.14-0.261c-0.06-0.04-0.14-0.05-0.23-0.029l-0.29,0.06l0.59,2.62l0.29-0.07
			c0.09-0.02,0.16-0.06,0.2-0.13C31.43,38.02,31.44,37.93,31.41,37.8z M23.12,37.62c-0.06-0.24-0.19-0.34-0.38-0.3
			c-0.2,0.05-0.28,0.189-0.22,0.43l0.45,2c0.05,0.24,0.18,0.34,0.38,0.29c0.2-0.04,0.27-0.18,0.22-0.42L23.12,37.62z M31.41,37.8
			L30.98,35.9c-0.03-0.131-0.07-0.21-0.14-0.261c-0.06-0.04-0.14-0.05-0.23-0.029l-0.29,0.06l0.59,2.62l0.29-0.07
			c0.09-0.02,0.16-0.06,0.2-0.13C31.43,38.02,31.44,37.93,31.41,37.8z M23.12,37.62c-0.06-0.24-0.19-0.34-0.38-0.3
			c-0.2,0.05-0.28,0.189-0.22,0.43l0.45,2c0.05,0.24,0.18,0.34,0.38,0.29c0.2-0.04,0.27-0.18,0.22-0.42L23.12,37.62z M31.41,37.8
			L30.98,35.9c-0.03-0.131-0.07-0.21-0.14-0.261c-0.06-0.04-0.14-0.05-0.23-0.029l-0.29,0.06l0.59,2.62l0.29-0.07
			c0.09-0.02,0.16-0.06,0.2-0.13C31.43,38.02,31.44,37.93,31.41,37.8z M40.62,33.48h-0.01l0.149,1.869l0.521-0.119L40.62,33.48z
			 M23.12,37.62c-0.06-0.24-0.19-0.34-0.38-0.3c-0.2,0.05-0.28,0.189-0.22,0.43l0.45,2c0.05,0.24,0.18,0.34,0.38,0.29
			c0.2-0.04,0.27-0.18,0.22-0.42L23.12,37.62z M31.41,37.8L30.98,35.9c-0.03-0.131-0.07-0.21-0.14-0.261
			c-0.06-0.04-0.14-0.05-0.23-0.029l-0.29,0.06l0.59,2.62l0.29-0.07c0.09-0.02,0.16-0.06,0.2-0.13
			C31.43,38.02,31.44,37.93,31.41,37.8z M40.62,33.48h-0.01l0.149,1.869l0.521-0.119L40.62,33.48z M48.34,18.71H29.88l-0.74-1.36
			c-0.69-1.47-2.22-2.41-3.9-2.41h-9.58c-2.36,0-4.27,1.82-4.27,4.06v26.47c0,1.98,1.69,3.59,3.77,3.59h33.68
			c2.08,0,3.771-1.609,3.771-3.59v-22.7C52.61,20.53,50.7,18.71,48.34,18.71z M18.56,37.97l-0.38-1.67l0.29-0.06l25.83-5.81
			l0.37,1.67l-0.58,0.13l-0.25-1.08L18.9,36.76l0.24,1.08L18.56,37.97z M40.86,36.6l-0.53,0.12l-0.23-3.8l0.78-0.17l1.42,3.53
			l-0.569,0.13l-0.271-0.7l-0.66,0.15L40.86,36.6z M41.93,32.51l0.57-0.13l0.71,3.14l0.95-0.21l0.109,0.521l-1.52,0.35L41.93,32.51z
			 M39.88,36.82l-0.58,0.13l-0.819-3.66l0.569-0.13L39.88,36.82z M35.33,37.84l-0.51,0.12l-0.83-3.66l0.72-0.17l1.06,2.07h0.011
			l-0.49-2.19l0.51-0.12l0.82,3.66l-0.59,0.141l-1.29-2.521h-0.01L35.33,37.84z M29.62,35.28l0.88-0.2
			c0.29-0.061,0.52-0.03,0.7,0.09c0.17,0.12,0.3,0.33,0.36,0.62l0.42,1.86c0.07,0.29,0.05,0.529-0.06,0.72
			c-0.11,0.189-0.31,0.31-0.59,0.38l-0.88,0.19L29.62,35.28z M29.84,39.08l-0.57,0.13l-0.83-3.67l0.58-0.13L29.84,39.08z
			 M31.92,34.76l1.57-0.35l0.12,0.52l-1,0.23l0.22,0.96l0.79-0.17l0.12,0.52l-0.79,0.181l0.25,1.119l1-0.22l0.109,0.521L32.74,38.43
			L31.92,34.76z M36.37,34.31l-0.12-0.52l1.78-0.4l0.12,0.521l-0.61,0.14l0.71,3.141l-0.58,0.13l-0.7-3.141L36.37,34.31z
			 M27.87,39.52L27.3,39.65l-0.83-3.66L28,35.65l0.11,0.52l-0.94,0.21l0.22,1.021l0.75-0.16l0.12,0.52l-0.75,0.17L27.87,39.52z
			 M25.4,40.08l-0.51,0.11l-0.83-3.66l0.73-0.16l1.05,2.06h0.01l-0.49-2.189l0.51-0.12l0.82,3.67l-0.59,0.13l-1.29-2.52H24.8
			L25.4,40.08z M20.79,40.27c0.05,0.221,0.17,0.311,0.37,0.271c0.19-0.04,0.26-0.18,0.21-0.4l-0.13-0.56l0.55-0.12l0.11,0.51
			c0.07,0.29,0.04,0.53-0.07,0.721c-0.1,0.189-0.3,0.31-0.57,0.38c-0.28,0.06-0.51,0.029-0.69-0.101c-0.18-0.12-0.3-0.33-0.36-0.609
			l-0.45-1.971c-0.06-0.29-0.04-0.529,0.07-0.72c0.11-0.18,0.3-0.31,0.58-0.37c0.27-0.06,0.5-0.03,0.68,0.09
			c0.18,0.13,0.31,0.33,0.37,0.62l0.09,0.38L21,38.52l-0.09-0.43c-0.05-0.22-0.17-0.32-0.37-0.27c-0.19,0.04-0.26,0.18-0.21,0.399
			L20.79,40.27z M22.02,37.19c0.12-0.2,0.31-0.33,0.6-0.391c0.28-0.06,0.51-0.03,0.7,0.09c0.19,0.13,0.31,0.341,0.38,0.63
			l0.43,1.931c0.07,0.29,0.04,0.54-0.07,0.729c-0.11,0.2-0.31,0.33-0.59,0.391c-0.29,0.06-0.52,0.029-0.71-0.101
			c-0.18-0.12-0.31-0.33-0.38-0.63l-0.43-1.92C21.88,37.62,21.91,37.38,22.02,37.19z M45.53,37.26L19.7,43.07l-0.37-1.67l0.58-0.131
			l0.25,1.08L45.1,36.74l-0.239-1.08l0.58-0.13l0.38,1.67L45.53,37.26z M48.32,25.86H15.68v-6.84h9.55c0.03,0.07,0.06,0.14,0.1,0.21
			l0.75,1.36c0.73,1.35,2.2,2.2,3.8,2.2h18.44V25.86z M40.61,33.48l0.149,1.869l0.521-0.119l-0.66-1.75H40.61z M31.2,38.22
			c0.09-0.02,0.16-0.06,0.2-0.13c0.03-0.07,0.04-0.16,0.01-0.29L30.98,35.9c-0.03-0.131-0.07-0.21-0.14-0.261
			c-0.06-0.04-0.14-0.05-0.23-0.029l-0.29,0.06l0.59,2.62L31.2,38.22z M23.35,40.04c0.2-0.04,0.27-0.18,0.22-0.42l-0.45-2
			c-0.06-0.24-0.19-0.34-0.38-0.3c-0.2,0.05-0.28,0.189-0.22,0.43l0.45,2C23.02,39.99,23.15,40.09,23.35,40.04z M31.41,37.8
			L30.98,35.9c-0.03-0.131-0.07-0.21-0.14-0.261c-0.06-0.04-0.14-0.05-0.23-0.029l-0.29,0.06l0.59,2.62l0.29-0.07
			c0.09-0.02,0.16-0.06,0.2-0.13C31.43,38.02,31.44,37.93,31.41,37.8z M23.12,37.62c-0.06-0.24-0.19-0.34-0.38-0.3
			c-0.2,0.05-0.28,0.189-0.22,0.43l0.45,2c0.05,0.24,0.18,0.34,0.38,0.29c0.2-0.04,0.27-0.18,0.22-0.42L23.12,37.62z M31.41,37.8
			L30.98,35.9c-0.03-0.131-0.07-0.21-0.14-0.261c-0.06-0.04-0.14-0.05-0.23-0.029l-0.29,0.06l0.59,2.62l0.29-0.07
			c0.09-0.02,0.16-0.06,0.2-0.13C31.43,38.02,31.44,37.93,31.41,37.8z M23.12,37.62c-0.06-0.24-0.19-0.34-0.38-0.3
			c-0.2,0.05-0.28,0.189-0.22,0.43l0.45,2c0.05,0.24,0.18,0.34,0.38,0.29c0.2-0.04,0.27-0.18,0.22-0.42L23.12,37.62z M31.41,37.8
			L30.98,35.9c-0.03-0.131-0.07-0.21-0.14-0.261c-0.06-0.04-0.14-0.05-0.23-0.029l-0.29,0.06l0.59,2.62l0.29-0.07
			c0.09-0.02,0.16-0.06,0.2-0.13C31.43,38.02,31.44,37.93,31.41,37.8z M23.12,37.62c-0.06-0.24-0.19-0.34-0.38-0.3
			c-0.2,0.05-0.28,0.189-0.22,0.43l0.45,2c0.05,0.24,0.18,0.34,0.38,0.29c0.2-0.04,0.27-0.18,0.22-0.42L23.12,37.62z M31.41,37.8
			L30.98,35.9c-0.03-0.131-0.07-0.21-0.14-0.261c-0.06-0.04-0.14-0.05-0.23-0.029l-0.29,0.06l0.59,2.62l0.29-0.07
			c0.09-0.02,0.16-0.06,0.2-0.13C31.43,38.02,31.44,37.93,31.41,37.8z M23.12,37.62c-0.06-0.24-0.19-0.34-0.38-0.3
			c-0.2,0.05-0.28,0.189-0.22,0.43l0.45,2c0.05,0.24,0.18,0.34,0.38,0.29c0.2-0.04,0.27-0.18,0.22-0.42L23.12,37.62z M31.41,37.8
			L30.98,35.9c-0.03-0.131-0.07-0.21-0.14-0.261c-0.06-0.04-0.14-0.05-0.23-0.029l-0.29,0.06l0.59,2.62l0.29-0.07
			c0.09-0.02,0.16-0.06,0.2-0.13C31.43,38.02,31.44,37.93,31.41,37.8z M23.12,37.62c-0.06-0.24-0.19-0.34-0.38-0.3
			c-0.2,0.05-0.28,0.189-0.22,0.43l0.45,2c0.05,0.24,0.18,0.34,0.38,0.29c0.2-0.04,0.27-0.18,0.22-0.42L23.12,37.62z M31.41,37.8
			L30.98,35.9c-0.03-0.131-0.07-0.21-0.14-0.261c-0.06-0.04-0.14-0.05-0.23-0.029l-0.29,0.06l0.59,2.62l0.29-0.07
			c0.09-0.02,0.16-0.06,0.2-0.13C31.43,38.02,31.44,37.93,31.41,37.8z M23.12,37.62c-0.06-0.24-0.19-0.34-0.38-0.3
			c-0.2,0.05-0.28,0.189-0.22,0.43l0.45,2c0.05,0.24,0.18,0.34,0.38,0.29c0.2-0.04,0.27-0.18,0.22-0.42L23.12,37.62z M23.12,37.62
			c-0.06-0.24-0.19-0.34-0.38-0.3c-0.2,0.05-0.28,0.189-0.22,0.43l0.45,2c0.05,0.24,0.18,0.34,0.38,0.29
			c0.2-0.04,0.27-0.18,0.22-0.42L23.12,37.62z M23.12,37.62c-0.06-0.24-0.19-0.34-0.38-0.3c-0.2,0.05-0.28,0.189-0.22,0.43l0.45,2
			c0.05,0.24,0.18,0.34,0.38,0.29c0.2-0.04,0.27-0.18,0.22-0.42L23.12,37.62z M23.12,37.62c-0.06-0.24-0.19-0.34-0.38-0.3
			c-0.2,0.05-0.28,0.189-0.22,0.43l0.45,2c0.05,0.24,0.18,0.34,0.38,0.29c0.2-0.04,0.27-0.18,0.22-0.42L23.12,37.62z M23.12,37.62
			c-0.06-0.24-0.19-0.34-0.38-0.3c-0.2,0.05-0.28,0.189-0.22,0.43l0.45,2c0.05,0.24,0.18,0.34,0.38,0.29
			c0.2-0.04,0.27-0.18,0.22-0.42L23.12,37.62z M23.12,37.62c-0.06-0.24-0.19-0.34-0.38-0.3c-0.2,0.05-0.28,0.189-0.22,0.43l0.45,2
			c0.05,0.24,0.18,0.34,0.38,0.29c0.2-0.04,0.27-0.18,0.22-0.42L23.12,37.62z M23.12,37.62c-0.06-0.24-0.19-0.34-0.38-0.3
			c-0.2,0.05-0.28,0.189-0.22,0.43l0.45,2c0.05,0.24,0.18,0.34,0.38,0.29c0.2-0.04,0.27-0.18,0.22-0.42L23.12,37.62z M23.12,37.62
			c-0.06-0.24-0.19-0.34-0.38-0.3c-0.2,0.05-0.28,0.189-0.22,0.43l0.45,2c0.05,0.24,0.18,0.34,0.38,0.29
			c0.2-0.04,0.27-0.18,0.22-0.42L23.12,37.62z M23.12,37.62c-0.06-0.24-0.19-0.34-0.38-0.3c-0.2,0.05-0.28,0.189-0.22,0.43l0.45,2
			c0.05,0.24,0.18,0.34,0.38,0.29c0.2-0.04,0.27-0.18,0.22-0.42L23.12,37.62z M23.12,37.62c-0.06-0.24-0.19-0.34-0.38-0.3
			c-0.2,0.05-0.28,0.189-0.22,0.43l0.45,2c0.05,0.24,0.18,0.34,0.38,0.29c0.2-0.04,0.27-0.18,0.22-0.42L23.12,37.62z M23.12,37.62
			c-0.06-0.24-0.19-0.34-0.38-0.3c-0.2,0.05-0.28,0.189-0.22,0.43l0.45,2c0.05,0.24,0.18,0.34,0.38,0.29
			c0.2-0.04,0.27-0.18,0.22-0.42L23.12,37.62z M23.12,37.62c-0.06-0.24-0.19-0.34-0.38-0.3c-0.2,0.05-0.28,0.189-0.22,0.43l0.45,2
			c0.05,0.24,0.18,0.34,0.38,0.29c0.2-0.04,0.27-0.18,0.22-0.42L23.12,37.62z M23.12,37.62c-0.06-0.24-0.19-0.34-0.38-0.3
			c-0.2,0.05-0.28,0.189-0.22,0.43l0.45,2c0.05,0.24,0.18,0.34,0.38,0.29c0.2-0.04,0.27-0.18,0.22-0.42L23.12,37.62z"/>
	</g>
</g>
</svg>
