<?xml version="1.0" encoding="utf-8"?>
<!-- Generator: Adobe Illustrator 16.0.0, SVG Export Plug-In . SVG Version: 6.00 Build 0)  -->
<!DOCTYPE svg PUBLIC "-//W3C//DTD SVG 1.1//EN" "http://www.w3.org/Graphics/SVG/1.1/DTD/svg11.dtd">
<svg version="1.1" id="Layer_1" xmlns="http://www.w3.org/2000/svg" xmlns:xlink="http://www.w3.org/1999/xlink" x="0px" y="0px"
	 width="64px" height="64px" viewBox="0 0 64 64" enable-background="new 0 0 64 64" xml:space="preserve">
<g>
	<polygon fill="#1D2E9D" points="27.12,15.86 27.11,15.86 26.81,17.99 27.42,17.99 	"/>
	<path fill="#1D2E9D" d="M29.86,16.85c0.07-0.07,0.11-0.19,0.11-0.35v-0.33c0-0.16-0.03-0.27-0.09-0.34
		c-0.05-0.07-0.14-0.11-0.26-0.11h-0.31v1.24h0.25C29.69,16.96,29.8,16.92,29.86,16.85z"/>
	<path fill="#1D2E9D" d="M32.37,16.96c0.06-0.07,0.09-0.17,0.09-0.32v-0.51c0-0.15-0.03-0.25-0.09-0.32
		c-0.05-0.06-0.14-0.09-0.25-0.09H31.8v1.33h0.32C32.23,17.05,32.32,17.02,32.37,16.96z"/>
	<path fill="#1D2E9D" d="M11.84,28.09h7.51v-3.7c0-1.24,1-2.24,2.23-2.24h22.09V11.57c0-0.68-0.57-1.24-1.23-1.24h-30.6
		c-0.67,0-1.23,0.56-1.23,1.24v15.28C10.61,27.53,11.17,28.09,11.84,28.09z M31.12,15.1h1c0.34,0,0.59,0.09,0.76,0.28
		c0.17,0.18,0.25,0.44,0.25,0.79v0.43c0,0.35-0.08,0.61-0.25,0.8c-0.17,0.18-0.42,0.27-0.76,0.27H31.8v1.76h-0.68V15.1z M28.63,15.1
		h1.01c0.35,0,0.6,0.08,0.76,0.25c0.16,0.16,0.25,0.41,0.25,0.75v0.26c0,0.45-0.15,0.74-0.45,0.86v0.01
		c0.16,0.05,0.28,0.15,0.35,0.3c0.07,0.15,0.1,0.36,0.1,0.61v0.76c0,0.13,0.01,0.23,0.01,0.3c0.01,0.08,0.03,0.15,0.07,0.23h-0.7
		c-0.02-0.07-0.04-0.14-0.05-0.2c0-0.06-0.01-0.17-0.01-0.33v-0.79c0-0.2-0.03-0.34-0.09-0.42c-0.07-0.08-0.18-0.12-0.33-0.12h-0.24
		v1.86h-0.68V15.1z M26.68,15.1h0.92l0.7,4.33h-0.68l-0.12-0.85h-0.77l-0.13,0.85h-0.63L26.68,15.1z M23.56,15.1h0.68v1.76h0.73
		V15.1h0.68v4.33h-0.68v-1.95h-0.73v1.95h-0.68V15.1z M21.14,18.16h0.65v0.29c0,0.28,0.11,0.42,0.35,0.42c0.11,0,0.2-0.03,0.26-0.1
		s0.09-0.18,0.09-0.33c0-0.18-0.04-0.34-0.12-0.48c-0.09-0.14-0.24-0.3-0.46-0.5c-0.28-0.24-0.48-0.47-0.59-0.67
		c-0.11-0.2-0.16-0.42-0.16-0.67c0-0.34,0.08-0.61,0.26-0.8c0.17-0.18,0.42-0.28,0.75-0.28c0.32,0,0.57,0.1,0.74,0.28
		c0.16,0.19,0.25,0.46,0.25,0.81v0.18h-0.64v-0.22c0-0.15-0.03-0.26-0.09-0.33c-0.06-0.07-0.14-0.1-0.26-0.1
		c-0.22,0-0.33,0.14-0.33,0.41c0,0.16,0.04,0.31,0.12,0.44c0.09,0.14,0.24,0.3,0.46,0.5c0.29,0.24,0.48,0.47,0.59,0.67
		c0.11,0.2,0.16,0.44,0.16,0.71c0,0.35-0.09,0.63-0.26,0.82c-0.18,0.18-0.43,0.28-0.77,0.28c-0.33,0-0.57-0.09-0.74-0.28
		s-0.26-0.46-0.26-0.81V18.16z"/>
	<path fill="#1D2E9D" d="M28.25,43.46c-0.23,0-0.35,0.14-0.35,0.43v2.36c0,0.28,0.12,0.42,0.35,0.42c0.24,0,0.36-0.14,0.36-0.42
		v-2.36C28.61,43.6,28.49,43.46,28.25,43.46z"/>
	<path fill="#1D2E9D" d="M42.431,35.91L42.431,35.91h-22.08h-8.52H11.83c-0.66,0-1.23,0.56-1.23,1.24V52.43
		c0,0.681,0.57,1.24,1.23,1.24h30.6c0.66,0,1.23-0.56,1.23-1.24V40.91h0.001v-1.229v-2.53C43.661,36.471,43.091,35.91,42.431,35.91z
		 M26.88,43.52h-1.17v1.15h0.93v0.61h-0.93v1.33h1.17v0.62h-1.85v-4.32h1.85V43.52z M29.28,46.2c0,0.35-0.08,0.62-0.26,0.81
		c-0.18,0.19-0.43,0.28-0.77,0.28c-0.33,0-0.59-0.09-0.76-0.28c-0.18-0.189-0.27-0.46-0.27-0.81V43.93c0-0.35,0.09-0.609,0.27-0.8
		c0.17-0.189,0.43-0.29,0.76-0.29c0.34,0,0.59,0.101,0.77,0.29c0.18,0.19,0.26,0.45,0.26,0.8V46.2z"/>
	<polygon fill="#1D2E9D" points="35.67,28.46 35.37,30.6 35.99,30.6 35.68,28.46 	"/>
	<path fill="#1D2E9D" d="M52.17,23.15h-8.5h-22.1c-0.33,0-0.63,0.14-0.85,0.37c-0.23,0.21-0.38,0.53-0.38,0.87v10.52h22.08
		c1.23,0,2.23,1,2.23,2.24v3.76h7.52c0.66,0,1.23-0.561,1.23-1.24V24.39C53.4,23.71,52.83,23.15,52.17,23.15z M36.19,32.03
		l-0.12-0.85h-0.78l-0.12,0.85h-0.63l0.64-3.94l0.06-0.38h0.92l0.06,0.38l0.65,3.94H36.19z M39.14,29.17H38.5v-0.51
		c0-0.26-0.11-0.4-0.34-0.4s-0.34,0.14-0.34,0.4v2.42c0,0.26,0.11,0.39,0.34,0.39s0.34-0.13,0.34-0.39v-0.66h0.64v0.61
		c0,0.34-0.08,0.6-0.25,0.78c-0.17,0.19-0.42,0.28-0.75,0.28c-0.32,0-0.57-0.09-0.74-0.28c-0.17-0.18-0.26-0.44-0.26-0.78v-2.32
		c0-0.25,0.05-0.46,0.15-0.62c0.03-0.06,0.07-0.12,0.11-0.17c0.17-0.18,0.42-0.28,0.74-0.28c0.33,0,0.58,0.1,0.75,0.28
		c0.04,0.05,0.08,0.11,0.11,0.17c0.1,0.16,0.14,0.37,0.14,0.62V29.17z M41.4,28.09v0.23h-1.17v1.15h0.93v0.61h-0.93v1.33h1.17v0.62
		h-1.85v-3.94v-0.38h1.85V28.09z"/>
</g>
</svg>
